<?xml version="1.0" standalone="no"?>
<!DOCTYPE svg PUBLIC "-//W3C//DTD SVG 1.1//EN" "http://www.w3.org/Graphics/SVG/1.1/DTD/svg11.dtd" >
<svg xmlns="http://www.w3.org/2000/svg" xmlns:xlink="http://www.w3.org/1999/xlink" version="1.1">
<metadata>
Created by FontForge 20170731 at Tue Nov 17 20:21:39 2015
 By Aleksey,,,
Copyright (c) 2015 by Fontsmith Ltd. All rights reserved. This font may not be altered in any way without prior permission of Fontsmith Ltd.
</metadata>
<defs>
<font id="Telefonica-ExtraLight" horiz-adv-x="0" >
  <font-face 
    font-family="Telefonica ExtraLight"
    font-weight="250"
    font-stretch="normal"
    units-per-em="1000"
    panose-1="0 0 3 0 0 0 0 0 0 0"
    ascent="750"
    descent="-250"
    x-height="490"
    cap-height="684"
    bbox="-375 -263 1107 1181"
    underline-thickness="27"
    underline-position="-126"
    unicode-range="U+000D-FB02"
  />
<missing-glyph horiz-adv-x="642" 
d="M86 660h470v-660h-470v660zM480 612h-320l161 -240zM293 331l-159 239v-480zM510 570l-160 -239l160 -241v480zM480 49l-159 239l-161 -239h320z" />
    <glyph glyph-name="fi" unicode="fi" horiz-adv-x="463" 
d="M110 463h-88v21l88 7v95q0 40 9.5 68t30.5 47q40 31 114 31q49 0 92 -9v-27q-38 8 -93 8q-69 0 -97 -29q-14 -14 -20.5 -36.5t-6.5 -61.5v-87h246v-490h-29v463h-217v-463h-29v463z" />
    <glyph glyph-name="fl" unicode="fl" horiz-adv-x="471" 
d="M110 463h-88v21l88 7v95q0 40 9.5 68t30.5 47q40 31 114 31q54 0 121 -10v-722h-29v697q-42 7 -93 7q-69 0 -97 -29q-14 -14 -20.5 -36.5t-6.5 -61.5v-87h142v-27h-142v-463h-29v463z" />
    <glyph glyph-name=".notdef" horiz-adv-x="642" 
d="M86 660h470v-660h-470v660zM480 612h-320l161 -240zM293 331l-159 239v-480zM510 570l-160 -239l160 -241v480zM480 49l-159 239l-161 -239h320z" />
    <glyph glyph-name=".null" 
 />
    <glyph glyph-name="nonmarkingreturn" unicode="&#xd;" horiz-adv-x="195" 
 />
    <glyph glyph-name="space" unicode=" " horiz-adv-x="195" 
 />
    <glyph glyph-name="exclam" unicode="!" horiz-adv-x="248" 
d="M107 684h35l-5 -529h-25zM96 12v4q0 13 7 20t20 7h2q13 0 20 -7t7 -20v-4q0 -26 -27 -26h-2q-27 0 -27 26z" />
    <glyph glyph-name="quotedbl" unicode="&#x22;" horiz-adv-x="305" 
d="M87 684h28l-4 -161h-20zM190 684h28l-4 -161h-20z" />
    <glyph glyph-name="numbersign" unicode="#" horiz-adv-x="511" 
d="M121 228h-79v26h83l33 176h-116v26h121l44 228h28l-44 -228h171l44 228h28l-44 -228h78v-26h-83l-33 -176h116v-26h-121l-45 -228h-28l45 228h-170l-45 -228h-28zM324 254l33 176h-171l-33 -176h171z" />
    <glyph glyph-name="dollar" unicode="$" horiz-adv-x="511" 
d="M251 -13q-116 0 -188 27v29q50 -15 91.5 -21.5t96.5 -5.5v322q-59 24 -94 44t-59.5 56t-24.5 92q0 79 49 122q45 40 129 45v96h26v-96q70 -1 139 -22v-27q-73 21 -139 21v-307q56 -23 91.5 -44.5t59 -59t23.5 -95.5q0 -79 -45.5 -122.5t-128.5 -52.5v-118h-26v117z
M251 669q-70 -5 -108.5 -38t-38.5 -96q0 -46 19.5 -77t50 -49.5t77.5 -38.5v299zM366 47q53 37 53 117q0 65 -37 101t-105 64v-311q57 6 89 29z" />
    <glyph glyph-name="percent" unicode="%" horiz-adv-x="860" 
d="M98.5 341q-32.5 48 -32.5 154t32.5 154t98.5 48q65 0 97.5 -48t32.5 -154t-32.5 -154t-97.5 -48q-66 0 -98.5 48zM583 697h30l-337 -711h-30zM275 357.5q24 39.5 24 137.5q0 97 -24.5 137t-77.5 40q-54 0 -78.5 -39.5t-24.5 -137.5q0 -99 25 -138t78 -39q54 0 78 39.5z
M565.5 34q-32.5 48 -32.5 154t32.5 154t98.5 48q65 0 97.5 -48t32.5 -154t-32.5 -154t-97.5 -48q-66 0 -98.5 48zM742 50.5q24 39.5 24 137.5q0 97 -24.5 137t-77.5 40q-54 0 -78.5 -39.5t-24.5 -137.5q0 -99 25 -138t78 -39q54 0 78 39.5z" />
    <glyph glyph-name="ampersand" unicode="&#x26;" horiz-adv-x="657" 
d="M486 85q-85 -101 -220 -101q-56 0 -101 23t-70.5 65t-25.5 96q0 134 153 216q-54 64 -73 98.5t-19 76.5q0 63 39 98.5t98 35.5q57 0 93 -33.5t36 -91.5q0 -54 -31.5 -103t-99.5 -88l221 -248q23 33 34.5 80t14.5 112h29q-1 -67 -16.5 -121.5t-43.5 -93.5l107 -119
l-21 -20zM340.5 476q27.5 41 27.5 91q0 45 -29 72.5t-73 27.5q-49 0 -78.5 -29t-29.5 -78q0 -39 19.5 -71.5t70.5 -91.5q65 38 92.5 79zM468 105l-228 260q-71 -40 -106.5 -86.5t-35.5 -113.5q0 -70 47.5 -111.5t122.5 -41.5q123 0 200 93z" />
    <glyph glyph-name="quotesingle" unicode="'" horiz-adv-x="202" 
d="M87 684h28l-4 -161h-20z" />
    <glyph glyph-name="parenleft" unicode="(" horiz-adv-x="298" 
d="M86 256q0 321 179 483l13 -11q-77 -89 -117 -204.5t-40 -267.5t40.5 -266.5t117.5 -202.5l-14 -12q-179 162 -179 481z" />
    <glyph glyph-name="parenright" unicode=")" horiz-adv-x="298" 
d="M19 -213q77 88 117.5 202.5t40.5 266.5t-40 267.5t-117 204.5l13 11q179 -162 179 -483q0 -319 -179 -481z" />
    <glyph glyph-name="asterisk" unicode="*" horiz-adv-x="410" 
d="M80 349l108 139l-158 56l9 26l154 -61l-4 175h31l-4 -175l155 61l9 -26l-159 -56l108 -139l-24 -18l-100 143l-101 -143z" />
    <glyph glyph-name="plus" unicode="+" horiz-adv-x="485" 
d="M229 323h-133v26h133v133h28v-133h132v-26h-132v-132h-28v132z" />
    <glyph glyph-name="comma" unicode="," horiz-adv-x="216" 
d="M103 -14q-27 3 -27 26v4q0 13 7 20t20 7h2q14 0 20.5 -10t6.5 -36q0 -47 -14 -107h-15v96z" />
    <glyph glyph-name="hyphen" unicode="-" horiz-adv-x="311" 
d="M72 274h167v-28h-167v28z" />
    <glyph glyph-name="period" unicode="." horiz-adv-x="216" 
d="M80 12v4q0 13 7 20t20 7h2q13 0 20 -7t7 -20v-4q0 -26 -27 -26h-2q-27 0 -27 26z" />
    <glyph glyph-name="slash" unicode="/" horiz-adv-x="431" 
d="M345 697h30l-289 -711h-30z" />
    <glyph glyph-name="zero" unicode="0" horiz-adv-x="511" 
d="M93.5 76q-50.5 90 -50.5 265t50.5 265.5t162.5 90.5q111 0 161.5 -90.5t50.5 -265.5t-50.5 -265t-161.5 -90q-112 0 -162.5 90zM397.5 97q39.5 82 39.5 244t-39.5 244.5t-141.5 82.5q-103 0 -142.5 -82.5t-39.5 -244.5t39.5 -244t142.5 -82q102 0 141.5 82z" />
    <glyph glyph-name="one" unicode="1" horiz-adv-x="511" 
d="M132 26h120v636h-112v22q61 6 94 6q26 0 36.5 -7t10.5 -26v-631h101v-26h-250v26z" />
    <glyph glyph-name="two" unicode="2" horiz-adv-x="511" 
d="M443 27v-27h-375q-3 6 -3 14q0 12 7.5 23.5t31.5 41.5l177 220q64 79 91 132.5t27 103.5q0 133 -176 133q-42 0 -139 -13v23q16 7 61 13t87 6q103 0 154 -48q44 -43 44 -116q0 -55 -25.5 -107.5t-97.5 -140.5l-210 -258h346z" />
    <glyph glyph-name="three" unicode="3" horiz-adv-x="511" 
d="M139.5 -9q-43.5 5 -68.5 12v25q28 -6 66.5 -9.5t69.5 -3.5q104 0 153 50q39 40 39 116q0 36 -8.5 61.5t-28.5 45.5q-49 49 -152 49h-5v24h6q88 0 130 40t42 121q0 71 -35 107q-39 40 -124 40q-34 0 -74.5 -5t-69.5 -13v25q30 10 72 15.5t78 5.5q45 0 79 -10t59 -34
q22 -22 34 -52t12 -76q0 -133 -105 -173q55 -14 88.5 -56t33.5 -113q0 -46 -13.5 -83t-35.5 -59q-25 -27 -67.5 -41t-96.5 -14q-35 0 -78.5 5z" />
    <glyph glyph-name="four" unicode="4" horiz-adv-x="511" 
d="M375 178h-326q-3 9 -3 17q0 11 6 28.5t9 26.5l144 434h30l-159 -479h299v183h28v-183h83v-27h-83v-178h-28v178z" />
    <glyph glyph-name="five" unicode="5" horiz-adv-x="511" 
d="M147 -9q-35 5 -50 11v27q46 -14 112 -14q197 0 197 172q0 83 -45 128q-22 22 -58.5 33.5t-101.5 11.5h-86q-3 18 -3 40l8 284h276v-28h-247l-9 -268h73q115 0 169 -50q27 -24 41 -64t14 -87q0 -98 -59 -149.5t-162 -51.5q-34 0 -69 5z" />
    <glyph glyph-name="six" unicode="6" horiz-adv-x="511" 
d="M158 22.5q-44 36.5 -63.5 111t-19.5 192.5q0 241 76 317q28 28 70.5 41t88.5 13q44 0 98 -12v-25q-44 7 -93 7q-84 0 -127.5 -33.5t-60.5 -97t-21 -174.5q34 15 79.5 26t88.5 11q184 0 184 -195q0 -101 -47 -159.5t-135 -58.5q-74 0 -118 36.5zM388 64.5
q40 50.5 40 140.5t-41 127.5t-122 37.5q-43 0 -85.5 -10t-73.5 -24v-17q0 -152 39 -228.5t130 -76.5q73 0 113 50.5z" />
    <glyph glyph-name="seven" unicode="7" horiz-adv-x="511" 
d="M442 676q0 -6 -13 -45l-204 -631h-35l217 655h-329v29h363q1 -3 1 -8z" />
    <glyph glyph-name="eight" unicode="8" horiz-adv-x="511" 
d="M149.5 10q-46.5 24 -72.5 65.5t-26 94.5q0 74 47 126.5t115 76.5q-57 30 -90 67.5t-33 96.5q0 70 46.5 115t119.5 45q75 0 121.5 -43t46.5 -111q0 -66 -36 -106.5t-103 -67.5q55 -26 91 -50t60 -61t24 -89q0 -88 -56.5 -135.5t-147.5 -47.5q-60 0 -106.5 24zM360.5 449.5
q33.5 38.5 33.5 91.5q0 59 -37.5 93.5t-98.5 34.5q-62 0 -99.5 -37t-37.5 -94q0 -54 33.5 -87t99.5 -67q73 27 106.5 65.5zM379.5 53q48.5 38 48.5 111q0 50 -26 85t-60.5 55.5t-98.5 51.5q-79 -26 -119.5 -73t-40.5 -111q0 -45 22.5 -81t62 -56t88.5 -20q75 0 123.5 38z
" />
    <glyph glyph-name="nine" unicode="9" horiz-adv-x="511" 
d="M353 660.5q44 -36.5 63.5 -111t19.5 -192.5q0 -241 -76 -317q-28 -28 -70.5 -41t-88.5 -13q-44 0 -98 12v25q44 -7 93 -7q84 0 127.5 33.5t60.5 97t21 174.5q-34 -15 -79.5 -26t-88.5 -11q-184 0 -184 195q0 101 47 159.5t135 58.5q74 0 118 -36.5zM123 618.5
q-40 -50.5 -40 -140.5t41 -127.5t122 -37.5q43 0 85.5 10t73.5 24v17q0 152 -39 228.5t-130 76.5q-73 0 -113 -50.5z" />
    <glyph glyph-name="colon" unicode=":" horiz-adv-x="216" 
d="M80 0zM80 369v4q0 13 7 20t20 7h2q13 0 20 -7t7 -20v-4q0 -26 -27 -26h-2q-27 0 -27 26zM80 12v4q0 13 7 20t20 7h2q13 0 20 -7t7 -20v-4q0 -26 -27 -26h-2q-27 0 -27 26z" />
    <glyph glyph-name="semicolon" unicode=";" horiz-adv-x="217" 
d="M80 0zM80 369v4q0 13 7 20t20 7h2q13 0 20 -7t7 -20v-4q0 -26 -27 -26h-2q-27 0 -27 26zM107 -14q-27 3 -27 26v4q0 13 7 20t20 7h2q14 0 20.5 -10t6.5 -36q0 -47 -14 -107h-15v96z" />
    <glyph glyph-name="less" unicode="&#x3c;" horiz-adv-x="485" 
d="M97 314v30l291 145v-30l-263 -130l263 -130v-30z" />
    <glyph glyph-name="equal" unicode="=" horiz-adv-x="485" 
d="M96 429h293v-26h-293v26zM96 262h293v-26h-293v26z" />
    <glyph glyph-name="greater" unicode="&#x3e;" horiz-adv-x="485" 
d="M97 199l263 130l-263 130v30l291 -145v-30l-291 -145v30z" />
    <glyph glyph-name="question" unicode="?" horiz-adv-x="393" 
d="M125 189q0 41 14.5 72.5t55.5 80.5l10 12q46 54 68 85t31 55.5t9 53.5q0 31 -10 53.5t-32 40.5q-17 13 -43.5 20.5t-71.5 7.5q-52 0 -108 -14l-4 21q16 7 51.5 13.5t72.5 6.5q78 0 122 -33q27 -20 40 -47.5t13 -69.5q0 -47 -20 -84.5t-77 -104.5q-47 -54 -63.5 -78
t-22 -49t-5.5 -76h-27q-3 15 -3 34zM116 12v4q0 13 7 20t20 7h2q13 0 20 -7t7 -20v-4q0 -26 -27 -26h-2q-27 0 -27 26z" />
    <glyph glyph-name="at" unicode="@" horiz-adv-x="742" 
d="M203.5 29q-76.5 43 -117 123.5t-40.5 189.5t40 189.5t114 123t174 42.5q96 0 167.5 -39t111 -112t39.5 -172q0 -111 -57 -164q-20 -18 -45 -27.5t-60 -9.5q-46 0 -73 20q-48 -24 -101 -24q-54 0 -80 26t-26 70q0 40 19 64q14 18 38 25t63 7h80v36q0 59 -18 77
q-9 9 -26 13.5t-47 4.5q-35 0 -71 -5l-1 23q36 8 85 8q31 0 51 -6t32 -20t17 -33t5 -62v-187q22 -11 56 -11q50 0 84 30q23 21 35 54t12 87q0 93 -36 160.5t-101.5 103t-152.5 35.5q-96 0 -163.5 -42t-101.5 -116.5t-34 -171.5q0 -154 83.5 -239.5t237.5 -85.5q45 0 102 6.5
t92 14.5v-25q-38 -10 -98 -17t-106 -7q-106 0 -182.5 43zM411.5 200q24.5 6 38.5 15v122h-90q-28 0 -43.5 -6t-24.5 -17q-14 -18 -14 -50q0 -34 19 -52t68 -18q22 0 46.5 6z" />
    <glyph glyph-name="A" unicode="A" horiz-adv-x="528" 
d="M239 684h39l224 -684h-32l-62 193h-291l-59 -193h-32zM399 220l-140 435l-133 -435h273z" />
    <glyph glyph-name="B" unicode="B" horiz-adv-x="556" 
d="M94 684h179q55 0 84 -9.5t49 -29.5q22 -22 32 -51.5t10 -69.5q0 -136 -109 -158q79 -6 116 -49.5t37 -127.5q0 -88 -42 -138q-25 -29 -61.5 -40t-105.5 -11h-189v684zM250 373q87 0 127 36.5t40 107.5q0 72 -34 107q-17 17 -44.5 25t-83.5 8h-130v-284h125zM257 27
q73 0 109 9.5t58 32.5q19 20 28 48t9 73q0 41 -9 69t-31 50q-21 21 -55.5 29.5t-102.5 8.5h-138v-320h132z" />
    <glyph glyph-name="C" unicode="C" horiz-adv-x="516" 
d="M135.5 67.5q-71.5 81.5 -71.5 264.5q0 186 72.5 275.5t197.5 89.5q38 0 76 -7.5t67 -18.5l-7 -28q-67 24 -130 24q-113 0 -178.5 -79.5t-65.5 -256.5q0 -165 61 -239.5t186 -74.5q50 0 84 8t39 9l5 -28q-66 -20 -134 -20q-130 0 -201.5 81.5z" />
    <glyph glyph-name="D" unicode="D" horiz-adv-x="610" 
d="M94 684h149q81 0 133 -12t91 -47t59 -101t20 -180q0 -109 -19.5 -178.5t-59.5 -107.5q-33 -31 -81.5 -44.5t-113.5 -13.5h-178v684zM263 27q65 0 108.5 13.5t71.5 40.5q35 33 53 97.5t18 170.5q0 102 -16.5 161.5t-51.5 91.5t-82.5 43.5t-117.5 11.5h-122v-630h139z" />
    <glyph glyph-name="E" unicode="E" horiz-adv-x="489" 
d="M94 684h327l-6 -27h-291v-296h243v-27h-243v-307h307v-27h-337v684z" />
    <glyph glyph-name="F" unicode="F" horiz-adv-x="448" 
d="M94 684h316l-6 -27h-280v-296h230v-27h-230v-334h-30v684z" />
    <glyph glyph-name="G" unicode="G" horiz-adv-x="575" 
d="M64 330q0 185 78 276t216 91q75 0 139 -23l-7 -28q-42 11 -70 16t-58 5q-129 0 -197.5 -83t-68.5 -251q0 -174 69.5 -245t188.5 -71q30 0 65.5 3.5t56.5 8.5v270h-125v27h153v-320q-23 -8 -67 -14t-85 -6q-288 0 -288 344z" />
    <glyph glyph-name="H" unicode="H" horiz-adv-x="625" 
d="M94 684h30v-324h377v324h30v-684h-30v333h-377v-333h-30v684z" />
    <glyph glyph-name="I" unicode="I" horiz-adv-x="218" 
d="M94 684h30v-684h-30v684z" />
    <glyph glyph-name="J" unicode="J" horiz-adv-x="331" 
d="M44 -10l-4 28q12 -3 48 -3q59 0 85.5 16t33 44t6.5 83v526h30v-526q0 -61 -7.5 -94.5t-40 -55.5t-102.5 -22q-31 0 -49 4z" />
    <glyph glyph-name="K" unicode="K" horiz-adv-x="537" 
d="M94 684h30v-409l325 409h35l-225 -284l241 -400h-34l-226 378l-116 -145v-233h-30v684z" />
    <glyph glyph-name="L" unicode="L" horiz-adv-x="462" 
d="M94 684h30v-657h294v-27h-324v684z" />
    <glyph glyph-name="M" unicode="M" horiz-adv-x="769" 
d="M94 684h30l258 -502l265 502h28v-684h-28v626l-251 -475h-30l-244 475v-626h-28v684z" />
    <glyph glyph-name="N" unicode="N" horiz-adv-x="651" 
d="M94 684h22l413 -624v624h28v-684h-23l-412 624v-624h-28v684z" />
    <glyph glyph-name="O" unicode="O" horiz-adv-x="619" 
d="M64 341q0 356 246 356q245 0 245 -356q0 -355 -245 -355q-246 0 -246 355zM473 99q50 82 50 242q0 161 -50 243.5t-163 82.5t-163.5 -82.5t-50.5 -243.5q0 -160 50.5 -242t163.5 -82t163 82z" />
    <glyph glyph-name="P" unicode="P" horiz-adv-x="538" 
d="M94 684h190q106 0 151 -48q50 -53 50 -158q0 -103 -46 -155q-44 -51 -134 -51h-181v-272h-30v684zM293 299q48 0 75.5 10t47.5 33q21 24 29 55t8 79q0 92 -40 138q-37 43 -133 43h-156v-358h169z" />
    <glyph glyph-name="Q" unicode="Q" horiz-adv-x="621" 
d="M428 -30q-20 10 -36.5 13t-57.5 3h-24q-246 0 -246 355q0 356 246 356q245 0 245 -356q0 -143 -38.5 -226t-110.5 -112q29 -5 72.5 -24t88.5 -46q-6 -14 -14 -24zM473 99q50 82 50 242q0 161 -50 243.5t-163 82.5t-163.5 -82.5t-50.5 -243.5q0 -160 50.5 -242t163.5 -82
t163 82z" />
    <glyph glyph-name="R" unicode="R" horiz-adv-x="554" 
d="M94 684h183q62 0 100.5 -13.5t62.5 -41.5q46 -53 46 -146q0 -73 -31 -127t-103 -71l144 -285h-33l-139 281q-16 -2 -44 -2h-156v-279h-30v684zM285 306q38 0 66 7t49 25q25 22 39.5 58.5t14.5 84.5q0 41 -10.5 74.5t-28.5 54.5q-39 47 -136 47h-155v-351h161z" />
    <glyph glyph-name="S" unicode="S" horiz-adv-x="510" 
d="M133 -5.5q-46 8.5 -73 18.5l7 29q79 -25 160 -25q91 0 137 31q22 15 37.5 43t15.5 71q0 51 -23 83.5t-56 51t-90 41.5q-59 23 -94 43t-59.5 56.5t-24.5 92.5q0 79 49 122q51 45 149 45q70 0 145 -22l-7 -28q-69 20 -132 20q-83 0 -128.5 -32t-45.5 -101q0 -48 22 -79
t54.5 -49t87.5 -40q60 -24 96.5 -45t62 -59.5t25.5 -98.5q0 -90 -58 -133.5t-162 -43.5q-49 0 -95 8.5z" />
    <glyph glyph-name="T" unicode="T" horiz-adv-x="531" 
d="M252 657h-222v27h476l-6 -27h-218v-657h-30v657z" />
    <glyph glyph-name="U" unicode="U" horiz-adv-x="622" 
d="M134 49q-25 28 -35.5 69.5t-10.5 99.5v466h30v-465q0 -56 10 -93t32 -61q45 -49 151 -49q97 0 145 44q26 24 38 60t12 94v470h28v-477q0 -60 -13 -99t-43 -68q-26 -26 -65.5 -40t-99.5 -14q-125 0 -179 63z" />
    <glyph glyph-name="V" unicode="V" horiz-adv-x="541" 
d="M31 684h32l211 -656l205 656h31l-216 -684h-39z" />
    <glyph glyph-name="W" unicode="W" horiz-adv-x="823" 
d="M31 684h31l180 -647l153 647h37l161 -647l168 647h31l-179 -684h-39l-160 642l-152 -642h-39z" />
    <glyph glyph-name="X" unicode="X" horiz-adv-x="453" 
d="M212 340l-186 344h33l169 -318l163 318h31l-178 -342l185 -342h-33l-169 315l-166 -315h-32z" />
    <glyph glyph-name="Y" unicode="Y" horiz-adv-x="516" 
d="M238 280l-210 404h33l193 -376l202 376h32l-220 -404v-280h-30v280z" />
    <glyph glyph-name="Z" unicode="Z" horiz-adv-x="526" 
d="M472 27v-27h-410v24l368 633h-372v27h407v-23l-368 -634h375z" />
    <glyph glyph-name="bracketleft" unicode="[" horiz-adv-x="315" 
d="M130 727h150v-28h-120v-878h120v-28h-150v934z" />
    <glyph glyph-name="backslash" unicode="\" horiz-adv-x="431" 
d="M56 697h30l289 -711h-30z" />
    <glyph glyph-name="bracketright" unicode="]" horiz-adv-x="315" 
d="M35 -179h120v878h-120v28h150v-934h-150v28z" />
    <glyph glyph-name="asciicircum" unicode="^" horiz-adv-x="485" 
d="M230 684h26l157 -245h-31l-138 218l-139 -218h-32z" />
    <glyph glyph-name="underscore" unicode="_" horiz-adv-x="430" 
d="M42 -28h346v-27h-346v27z" />
    <glyph glyph-name="grave" unicode="`" horiz-adv-x="390" 
d="M98 574zM98 706l28 33l162 -149l-13 -16z" />
    <glyph glyph-name="a" unicode="a" horiz-adv-x="472" 
d="M92 24q-44 38 -44 114q0 62 34 97q23 23 58.5 33t91.5 10h136v52q0 82 -30 114q-31 32 -107 32q-66 0 -138 -18l-3 25q74 21 144 21q89 0 127 -41q36 -39 36 -120v-343h-22l-4 33q-32 -20 -76.5 -33.5t-88.5 -13.5q-70 0 -114 38zM300 27q40 13 68 30v194h-132
q-52 0 -82 -8.5t-47 -24.5q-29 -27 -29 -80q0 -62 36.5 -93t99.5 -31q46 0 86 13z" />
    <glyph glyph-name="b" unicode="b" horiz-adv-x="500" 
d="M176.5 0.5q-41.5 14.5 -72.5 35.5l-3 -36h-23v715h29v-254q76 43 149 43q188 0 188 -259q0 -112 -39.5 -185.5t-141.5 -73.5q-45 0 -86.5 14.5zM378.5 77.5q35.5 62.5 35.5 160.5q0 123 -39.5 180.5t-121.5 57.5q-69 0 -146 -43v-371q71 -47 151 -47q85 0 120.5 62.5z
" />
    <glyph glyph-name="c" unicode="c" horiz-adv-x="420" 
d="M113 45.5q-57 59.5 -57 198.5q0 136 54 198t159 62q64 0 110 -19l-3 -26q-53 17 -105 17q-92 0 -138.5 -52t-46.5 -180q0 -123 47 -176t152 -53q48 0 91 9l4 -26q-45 -12 -98 -12q-112 0 -169 59.5z" />
    <glyph glyph-name="d" unicode="d" horiz-adv-x="501" 
d="M101.5 51q-45.5 65 -45.5 193q0 260 194 260q41 0 75.5 -9.5t68.5 -28.5v249h29v-715h-22l-4 31q-28 -18 -69.5 -31.5t-79.5 -13.5q-101 0 -146.5 65zM325.5 25.5q31.5 10.5 68.5 29.5v383q-39 21 -69.5 29.5t-68.5 8.5q-87 0 -128.5 -55.5t-41.5 -173.5
q0 -119 38 -175.5t126 -56.5q44 0 75.5 10.5z" />
    <glyph glyph-name="e" unicode="e" horiz-adv-x="483" 
d="M108.5 52q-52.5 66 -52.5 192q0 115 46 187.5t142 72.5q93 0 137.5 -62t44.5 -191v-11q0 -6 -2.5 -8.5t-9.5 -2.5h-328q2 -106 45.5 -160t142.5 -54q32 0 66 4.5t59 11.5l4 -27q-21 -7 -59 -12.5t-71 -5.5q-112 0 -164.5 66zM397 256q0 115 -38 167.5t-115 52.5
t-117 -59.5t-41 -160.5h311z" />
    <glyph glyph-name="f" unicode="f" horiz-adv-x="275" 
d="M110 464h-88v20l88 6v98q0 43 6.5 67.5t23.5 41.5q18 17 46 26t61 9q32 0 58 -6v-28q-28 6 -55 6q-30 0 -51.5 -6t-36.5 -21q-14 -14 -18.5 -34.5t-4.5 -62.5v-90h140v-26h-140v-464h-29v464z" />
    <glyph glyph-name="g" unicode="g" horiz-adv-x="486" 
d="M449 -92q0 -65 -39 -102q-47 -45 -162 -45q-106 0 -157 35t-51 100q0 40 17 74.5t45 51.5q-15 8 -22 24t-7 34q0 27 14 57t37 47q-30 22 -47 58t-17 86q0 86 48.5 131t128.5 45q43 0 69 -10l64 123q12 -4 24 -12l-63 -122q82 -47 82 -155q0 -87 -48.5 -130.5
t-129.5 -43.5q-49 0 -88 17q-17 -11 -31 -36.5t-14 -51.5q0 -20 10 -30q9 -9 26.5 -12.5t51.5 -2.5h86q59 0 88.5 -8t51.5 -30q33 -33 33 -92zM127 220q38 -38 108 -38q73 0 111 39.5t38 106.5q0 71 -37.5 109.5t-109.5 38.5t-110 -39t-38 -109t38 -108zM380 -182
q39 29 39 89q0 59 -34 81t-104 22h-96q-46 0 -59 4q-29 -21 -42.5 -51.5t-13.5 -62.5q0 -54 41.5 -82.5t135.5 -28.5t133 29z" />
    <glyph glyph-name="h" unicode="h" horiz-adv-x="516" 
d="M432.5 416q8.5 -29 8.5 -70v-346h-29v327q0 45 -7.5 71.5t-24.5 43.5q-15 15 -43.5 24.5t-64.5 9.5q-74 0 -165 -49v-427h-29v715h29v-262q84 51 173 51q79 0 121 -39q23 -20 31.5 -49z" />
    <glyph glyph-name="i" unicode="i" horiz-adv-x="186" 
d="M74.5 601q-5.5 5 -5.5 18v4q0 13 5.5 18t17.5 5h2q12 0 17.5 -5t5.5 -18v-4q0 -13 -5.5 -18t-17.5 -5h-2q-12 0 -17.5 5zM78 490h29v-490h-29v490z" />
    <glyph glyph-name="j" unicode="j" horiz-adv-x="189" 
d="M77.5 601q-5.5 5 -5.5 18v4q0 13 5.5 18t17.5 5h2q12 0 17.5 -5t5.5 -18v-4q0 -13 -5.5 -18t-17.5 -5h-2q-12 0 -17.5 5zM-54 -212q37 -1 64 8.5t43 23.5q15 13 21.5 36.5t6.5 67.5v566h29v-566q0 -50 -7.5 -77t-25.5 -45q-19 -19 -49 -29.5t-77 -10.5z" />
    <glyph glyph-name="k" unicode="k" horiz-adv-x="463" 
d="M78 715h32v-513l269 288h40l-170 -182l188 -308h-36l-173 287l-118 -126v-161h-32v715z" />
    <glyph glyph-name="l" unicode="l" horiz-adv-x="185" 
d="M78 715h29v-715h-29v715z" />
    <glyph glyph-name="m" unicode="m" horiz-adv-x="821" 
d="M78 490h22l4 -36q76 50 162 50q39 0 74.5 -12.5t60.5 -38.5q36 22 83 36.5t98 14.5q38 0 71 -10t55 -29q21 -19 29.5 -47t8.5 -72v-346h-30v326q0 47 -6.5 72.5t-23.5 42.5t-46.5 26t-64.5 9q-74 0 -161 -44q14 -30 14 -86v-346h-29v326q0 49 -7.5 74.5t-22.5 40.5
q-18 17 -48 26t-63 9q-38 0 -74.5 -12t-76.5 -35v-429h-29v490z" />
    <glyph glyph-name="n" unicode="n" horiz-adv-x="516" 
d="M78 490h22l4 -38q87 52 176 52q79 0 121 -39q23 -20 31.5 -49t8.5 -70v-346h-29v327q0 45 -7.5 71.5t-24.5 43.5q-15 15 -43.5 24.5t-64.5 9.5q-74 0 -165 -49v-427h-29v490z" />
    <glyph glyph-name="o" unicode="o" horiz-adv-x="509" 
d="M104 51.5q-48 65.5 -48 193.5q0 129 48 194t151 65q102 0 150 -65.5t48 -193.5t-48 -193.5t-150 -65.5q-103 0 -151 65.5zM384.5 72.5q38.5 57.5 38.5 172.5t-39 173t-129 58q-91 0 -130 -58t-39 -173t39 -172.5t130 -57.5t129.5 57.5z" />
    <glyph glyph-name="p" unicode="p" horiz-adv-x="499" 
d="M78 490h22l4 -39q27 19 69 36t83 17q92 0 139.5 -59.5t47.5 -197.5q0 -126 -40.5 -193.5t-144.5 -67.5q-45 0 -86 16t-65 34v-261h-29v715zM380 74.5q33 59.5 33 173.5q0 121 -38.5 174.5t-123.5 53.5q-34 0 -71.5 -13.5t-72.5 -36.5v-360q26 -21 66.5 -36t81.5 -15
q92 0 125 59.5z" />
    <glyph glyph-name="q" unicode="q" horiz-adv-x="501" 
d="M394 29q-29 -17 -69.5 -30t-76.5 -13q-101 0 -146.5 65t-45.5 193q0 260 194 260q42 0 77 -10t70 -30l4 26h22v-709l-29 -6v254zM324.5 25.5q31.5 10.5 69.5 30.5v382q-39 21 -69.5 29.5t-68.5 8.5q-87 0 -128.5 -55.5t-41.5 -173.5q0 -119 38 -175.5t126 -56.5
q43 0 74.5 10.5z" />
    <glyph glyph-name="r" unicode="r" horiz-adv-x="291" 
d="M78 490h22l4 -41q30 25 69.5 40t82.5 15q11 0 15 -1v-30q-9 1 -23 1q-75 0 -141 -50v-424h-29v490z" />
    <glyph glyph-name="s" unicode="s" horiz-adv-x="386" 
d="M112 -9q-35 5 -55 11l3 26q53 -14 116 -14q73 0 110.5 26.5t37.5 76.5q0 37 -18 59.5t-44.5 34.5t-71.5 26q-47 15 -76 28t-48.5 39t-19.5 68q0 68 46.5 100t122.5 32q29 0 60 -5t46 -9l-3 -27q-57 13 -104 13q-138 0 -138 -104q0 -32 16.5 -52t41.5 -31t68 -25
q50 -16 80 -30.5t51 -42.5t21 -74q0 -60 -43 -95.5t-132 -35.5q-32 0 -67 5z" />
    <glyph glyph-name="t" unicode="t" horiz-adv-x="319" 
d="M134 16q-15 15 -21.5 38t-6.5 60v350h-88v20l88 6v111q15 7 29 8v-119h133v-26h-133v-326q0 -37 4.5 -61.5t18.5 -39.5q22 -23 67 -23q39 0 75 9l3 -24q-36 -13 -79 -13q-60 0 -90 30z" />
    <glyph glyph-name="u" unicode="u" horiz-adv-x="514" 
d="M115 25q-23 20 -31.5 49t-8.5 70v346h29v-327q0 -45 7.5 -71.5t24.5 -43.5q16 -16 43.5 -25t63.5 -9q73 0 164 49v427h29v-490h-22l-4 38q-87 -52 -175 -52q-78 0 -120 39z" />
    <glyph glyph-name="v" unicode="v" horiz-adv-x="415" 
d="M22 490h31l156 -457l154 457h30l-167 -490h-34z" />
    <glyph glyph-name="w" unicode="w" horiz-adv-x="649" 
d="M19 490h32l131 -452l127 452h29l147 -452l111 452h31l-124 -490h-35l-144 445l-125 -445h-35z" />
    <glyph glyph-name="x" unicode="x" horiz-adv-x="396" 
d="M180 244l-154 246h33l137 -223l141 223h33l-157 -245l155 -245h-33l-139 223l-138 -223h-32z" />
    <glyph glyph-name="y" unicode="y" horiz-adv-x="514" 
d="M204 -232l-7 27q30 -6 65 -6q79 0 114 29q18 15 24.5 40.5t6.5 69.5v108q-84 -50 -172 -50q-78 0 -120 39q-23 20 -31.5 49t-8.5 70v346h29v-327q0 -44 7 -71t25 -44q17 -16 44 -25t62 -9q74 0 165 49v427h29v-564q0 -46 -7.5 -77t-27.5 -50q-41 -38 -129 -38
q-45 0 -68 7z" />
    <glyph glyph-name="z" unicode="z" horiz-adv-x="408" 
d="M48 18l280 446h-274v26h314v-17l-280 -446h283v-27h-323v18z" />
    <glyph glyph-name="braceleft" unicode="{" horiz-adv-x="328" 
d="M177 -187.5q-21 19.5 -21 69.5v202q0 57 -10 88.5t-31 48t-61 26.5v26q40 9 61.5 26.5t31 49.5t9.5 87v202q0 49 20.5 69t68.5 20h33v-28h-30q-39 0 -51 -14t-12 -56v-191q0 -58 -7.5 -92t-26.5 -54t-54 -32q34 -13 52 -30t27 -51.5t9 -96.5v-191q0 -28 4.5 -42.5
t17.5 -21t41 -6.5h30v-28h-33q-47 0 -68 19.5z" />
    <glyph glyph-name="bar" unicode="|" horiz-adv-x="208" 
d="M90 743h28v-996h-28v996z" />
    <glyph glyph-name="braceright" unicode="}" horiz-adv-x="328" 
d="M51 -207v28h30q28 0 41 6.5t17.5 21t4.5 42.5v191q0 62 9 96.5t27 51.5t52 30q-35 12 -54 32t-26.5 54t-7.5 92v191q0 42 -12 56t-51 14h-30v28h33q48 0 68.5 -20t20.5 -69v-202q0 -55 9.5 -87t31 -49.5t61.5 -26.5v-26q-40 -10 -61 -26.5t-31 -48t-10 -88.5v-202
q0 -50 -21 -69.5t-68 -19.5h-33z" />
    <glyph glyph-name="asciitilde" unicode="~" horiz-adv-x="486" 
d="M297 336q-21 4 -52 12q-59 17 -96 17q-38 0 -46 -31l-22 5q2 24 19 40t47 16q24 0 46 -4t57 -13q31 -8 50 -12t39 -4q17 0 28 7.5t17 23.5l22 -6q-3 -26 -20.5 -40.5t-45.5 -14.5q-22 0 -43 4z" />
    <glyph glyph-name="uni00A0" unicode="&#xa0;" horiz-adv-x="195" 
 />
    <glyph glyph-name="exclamdown" unicode="&#xa1;" horiz-adv-x="248" 
d="M152 468v-4q0 -13 -7 -20t-20 -7h-2q-13 0 -20 7t-7 20v4q0 26 27 26h2q27 0 27 -26zM141 -204h-35l5 529h25z" />
    <glyph glyph-name="cent" unicode="&#xa2;" horiz-adv-x="511" 
d="M281 -13q-99 6 -149 66t-50 191t50.5 193.5t148.5 66.5v108h26v-108q58 -3 98 -19v-25q-56 17 -98 18v-465q51 0 99 10v-25q-42 -12 -99 -12v-129h-26v130zM281 478q-84 -5 -126.5 -58.5t-42.5 -175.5q0 -114 40 -168.5t129 -61.5v464z" />
    <glyph glyph-name="sterling" unicode="&#xa3;" horiz-adv-x="511" 
d="M82 15q0 12 6.5 21t29.5 31q41 40 57 75t16 80q0 55 -22 121h-81v17l74 5q-28 77 -28 144q0 92 51 140t146 48q30 0 66.5 -4.5t65.5 -13.5v-23q-69 13 -122 13q-176 0 -176 -159q0 -57 27 -142h174v-25h-166q21 -63 21 -122q0 -57 -23.5 -99t-84.5 -95h359v-27h-387
q-3 6 -3 15z" />
    <glyph glyph-name="currency" unicode="&#xa4;" horiz-adv-x="511" 
d="M58 158l81 82q-16 18 -26 47.5t-10 62.5q0 32 10.5 61.5t26.5 47.5l-82 83l17 17l81 -81q37 36 100 36q60 0 98 -37l82 82l17 -17l-81 -82q16 -18 26 -47.5t10 -62.5t-10 -62.5t-26 -47.5l81 -82l-17 -17l-82 82q-38 -37 -98 -37q-61 0 -99 37l-82 -82zM323 231.5
q28 20.5 42.5 52.5t14.5 66t-14.5 66t-42.5 52.5t-67 20.5t-67.5 -20.5t-43 -52.5t-14.5 -66t14.5 -66t43 -52.5t67.5 -20.5t67 20.5z" />
    <glyph glyph-name="yen" unicode="&#xa5;" horiz-adv-x="512" 
d="M237 163h-142v25h142v74h-142v25h140l-187 397h32l172 -376l183 376h30l-199 -397h139v-25h-141v-74h141v-25h-141v-163h-27v163z" />
    <glyph glyph-name="brokenbar" unicode="&#xa6;" horiz-adv-x="207" 
d="M90 743h28v-386h-28v386zM90 134h28v-387h-28v387z" />
    <glyph glyph-name="section" unicode="&#xa7;" horiz-adv-x="516" 
d="M120 1l3 26q52 -14 112 -14q162 0 162 102q0 31 -19 56t-73 37l-84 19q-73 16 -101.5 46.5t-28.5 77.5q0 79 65 116q-61 32 -61 102q0 62 46.5 95t129.5 33q57 0 107 -15l-5 -24q-50 12 -99 12q-71 0 -111 -24t-40 -74q0 -74 94 -97l81 -20q72 -18 99.5 -46.5t27.5 -75.5
q0 -76 -63 -114q32 -17 47.5 -42.5t15.5 -62.5q0 -128 -187 -128q-65 0 -118 15zM383 272q14 25 14 58q0 42 -24.5 63t-86.5 36l-73 18q-26 7 -33 10q-61 -30 -61 -104q0 -45 24 -65t75 -32l88 -20l30 -8q33 19 47 44z" />
    <glyph glyph-name="dieresis" unicode="&#xa8;" horiz-adv-x="390" 
d="M74 615zM83 623.5q-9 8.5 -9 23.5v4q0 15 9 24t24 9h2q15 0 24 -9t9 -24v-4q0 -15 -9 -23.5t-24 -8.5h-2q-15 0 -24 8.5zM257 623.5q-9 8.5 -9 23.5v4q0 15 9 24t24 9h2q15 0 24 -9t9 -24v-4q0 -15 -9 -23.5t-24 -8.5h-2q-15 0 -24 8.5z" />
    <glyph glyph-name="copyright" unicode="&#xa9;" horiz-adv-x="808" 
d="M148.5 78.5q-88.5 92.5 -88.5 263.5t88.5 263t255.5 92t255.5 -92t88.5 -263t-88.5 -263.5t-255.5 -92.5t-255.5 92.5zM637 98.5q82 84.5 82 243.5q0 160 -83 243.5t-232 83.5q-148 0 -231.5 -84t-83.5 -243q0 -160 82 -244t233 -84t233 84.5zM321 209.5
q-36 42.5 -36 134.5q0 87 33 132.5t97 45.5q46 0 73 -12l-3 -24q-13 5 -31 8t-33 3q-56 0 -82.5 -37t-26.5 -116q0 -83 31 -117t79 -34q30 0 62 7v-24q-31 -9 -63 -9q-64 0 -100 42.5z" />
    <glyph glyph-name="ordfeminine" unicode="&#xaa;" horiz-adv-x="392" 
d="M93.5 377q-28.5 26 -28.5 75q0 42 21 66q16 18 40 24t57 6h92v33q0 48 -21.5 68.5t-65.5 20.5q-36 0 -83 -9l-3 24q17 5 44 8.5t44 3.5q60 0 87 -29t27 -92v-218h-23l-4 22q-22 -12 -50.5 -20.5t-53.5 -8.5q-51 0 -79.5 26zM228 384q28 7 47 18v121h-95
q-48 0 -66.5 -18.5t-18.5 -53.5q0 -32 20 -53t63 -21q22 0 50 7z" />
    <glyph glyph-name="guillemotleft" unicode="&#xab;" horiz-adv-x="487" 
d="M120 214q-15 18 -19.5 28t-4.5 20t4.5 20t19.5 28l118 140l19 -14l-129 -174l129 -174l-19 -14zM275 214q-15 18 -19.5 28t-4.5 20t4.5 20t19.5 28l118 140l19 -14l-129 -174l129 -174l-19 -14z" />
    <glyph glyph-name="logicalnot" unicode="&#xac;" horiz-adv-x="485" 
d="M362 406h-266v26h293v-195h-27v169z" />
    <glyph glyph-name="uni00AD" unicode="&#xad;" horiz-adv-x="311" 
d="M72 274h167v-28h-167v28z" />
    <glyph glyph-name="registered" unicode="&#xae;" horiz-adv-x="808" 
d="M148.5 78.5q-88.5 92.5 -88.5 263.5t88.5 263t255.5 92t255.5 -92t88.5 -263t-88.5 -263.5t-255.5 -92.5t-255.5 92.5zM637 98.5q82 84.5 82 243.5q0 160 -83 243.5t-232 83.5q-148 0 -231.5 -84t-83.5 -243q0 -160 82 -244t233 -84t233 84.5zM309 518h91q64 0 91 -27
q15 -16 21 -32.5t6 -42.5q0 -76 -64 -94l71 -147h-33l-65 143h-89v-143h-29v343zM407 345q43 0 62 16.5t19 58.5q0 37 -20.5 53.5t-62.5 16.5h-67v-145h69z" />
    <glyph glyph-name="macron" unicode="&#xaf;" horiz-adv-x="390" 
d="M83 626zM83 653h223v-27h-223v27z" />
    <glyph glyph-name="degree" unicode="&#xb0;" horiz-adv-x="419" 
d="M136.5 378q-33.5 20 -54 58t-20.5 91t20.5 91.5t54 58.5t73.5 20q39 0 73 -20t54 -58.5t20 -91.5q0 -52 -20 -90.5t-54 -58.5t-73 -20q-40 0 -73.5 20zM296 425q31 39 31 102q0 64 -31 103t-86 39t-86.5 -39t-31.5 -103q0 -63 31.5 -102t86.5 -39t86 39z" />
    <glyph glyph-name="plusminus" unicode="&#xb1;" horiz-adv-x="485" 
d="M229 323h-133v26h133v133h28v-133h132v-26h-132v-132h-28v132zM96 26h293v-26h-293v26z" />
    <glyph glyph-name="uni00B2" unicode="&#xb2;" horiz-adv-x="447" 
d="M100 381q0 8 4.5 16.5t20.5 27.5l92 113q42 51 56.5 79t14.5 51q0 35 -23.5 52t-70.5 17q-18 0 -42 -3t-38 -7v25q15 5 39 8t47 3q59 0 89 -26q14 -12 21 -28t7 -41q0 -31 -15 -59.5t-63 -86.5l-105 -127h185v-26h-217q-2 6 -2 12z" />
    <glyph glyph-name="uni00B3" unicode="&#xb3;" horiz-adv-x="447" 
d="M153.5 356q-24.5 3 -38.5 7v25q45 -9 76 -9q50 0 76.5 23.5t26.5 64.5q0 38 -24 62t-75 24h-14v26h14q48 0 71 20.5t23 55.5q0 32 -15 52q-11 14 -30.5 21t-52.5 7q-38 0 -73 -8v25q38 9 78 9q36 0 62 -10.5t39 -27.5q20 -26 20 -68q0 -41 -21 -63t-53 -26
q35 -6 57 -31.5t22 -69.5q0 -55 -34.5 -83.5t-90.5 -28.5q-19 0 -43.5 3z" />
    <glyph glyph-name="acute" unicode="&#xb4;" horiz-adv-x="390" 
d="M99 574zM99 590l162 149l28 -33l-177 -132z" />
    <glyph glyph-name="uni00B5" unicode="&#xb5;" horiz-adv-x="517" 
d="M78 0zM78 490h29v-327q0 -45 7.5 -71.5t24.5 -43.5q16 -16 43.5 -25t63.5 -9q73 0 164 49v427h29v-490h-22l-4 38q-87 -52 -175 -52q-44 0 -78.5 13.5t-52.5 37.5v-262h-29v715z" />
    <glyph glyph-name="paragraph" unicode="&#xb6;" horiz-adv-x="537" 
d="M246 362q-98 0 -149 41.5t-51 118.5q0 50 22 86.5t59 56t81 19.5h284v-27h-70v-860h-30v860h-116v-860h-30v565z" />
    <glyph glyph-name="periodcentered" unicode="&#xb7;" horiz-adv-x="216" 
d="M80 369v4q0 13 7 20t20 7h2q13 0 20 -7t7 -20v-4q0 -26 -27 -26h-2q-27 0 -27 26z" />
    <glyph glyph-name="cedilla" unicode="&#xb8;" horiz-adv-x="390" 
d="M126 -2zM126 -182v21q36 -6 57 -6q54 0 54 32q0 17 -13 25t-39 15q-28 8 -41.5 16.5t-13.5 27.5q0 26 21 49h15q-13 -20 -13 -35q0 -17 11.5 -24t36.5 -14q29 -7 45.5 -18.5t16.5 -40.5q0 -25 -19 -40.5t-57 -15.5q-31 0 -61 8z" />
    <glyph glyph-name="uni00B9" unicode="&#xb9;" horiz-adv-x="447" 
d="M133 394h88v330h-83v24q48 6 88 6q16 0 20 -4.5t4 -15.5v-340h72v-25h-189v25z" />
    <glyph glyph-name="ordmasculine" unicode="&#xba;" horiz-adv-x="420" 
d="M105 396.5q-38 45.5 -38 127.5t38 127.5t105 45.5t105 -45.5t38 -127.5t-38 -127.5t-105 -45.5t-105 45.5zM294.5 416q28.5 37 28.5 108q0 72 -28.5 109t-84.5 37t-84.5 -37t-28.5 -109q0 -71 28.5 -108t84.5 -37t84.5 37z" />
    <glyph glyph-name="guillemotright" unicode="&#xbb;" horiz-adv-x="487" 
d="M75 88l129 174l-129 174l19 14l118 -140q15 -18 19.5 -28t4.5 -20t-4.5 -20t-19.5 -28l-118 -140zM230 88l129 174l-129 174l19 14l118 -140q15 -18 19.5 -28t4.5 -20t-4.5 -20t-19.5 -28l-118 -140z" />
    <glyph glyph-name="onequarter" unicode="&#xbc;" horiz-adv-x="836" 
d="M576 697h30l-337 -711h-30zM115 324h88v330h-83v24q48 6 88 6q16 0 20 -4.5t4 -15.5v-340h72v-25h-189v25zM665 103h-187q-3 6 -3 15q0 10 6 26l88 243h29l-95 -260h162v112h26v-112h42v-24h-42v-103h-26v103z" />
    <glyph glyph-name="onehalf" unicode="&#xbd;" horiz-adv-x="836" 
d="M115 0zM576 697h30l-337 -711h-30zM115 324h88v330h-83v24q48 6 88 6q16 0 20 -4.5t4 -15.5v-340h72v-25h-189v25zM505 12q0 8 4.5 16.5t20.5 27.5l92 113q42 51 56.5 79t14.5 51q0 35 -23.5 52t-70.5 17q-18 0 -42 -3t-38 -7v25q15 5 39 8t47 3q59 0 89 -26
q14 -12 21 -28t7 -41q0 -31 -15 -59.5t-63 -86.5l-105 -127h185v-26h-217q-2 6 -2 12z" />
    <glyph glyph-name="threequarters" unicode="&#xbe;" horiz-adv-x="836" 
d="M586 697h30l-337 -711h-30zM145.5 291q-24.5 3 -38.5 7v25q45 -9 76 -9q50 0 76.5 23.5t26.5 64.5q0 38 -24 62t-75 24h-14v26h14q48 0 71 20.5t23 55.5q0 32 -15 52q-11 14 -30.5 21t-52.5 7q-38 0 -73 -8v25q38 9 78 9q36 0 62 -10.5t39 -27.5q20 -26 20 -68
q0 -41 -21 -63t-53 -26q35 -6 57 -31.5t22 -69.5q0 -55 -34.5 -83.5t-90.5 -28.5q-19 0 -43.5 3zM679 103h-187q-3 6 -3 15q0 10 6 26l88 243h29l-95 -260h162v112h26v-112h42v-24h-42v-103h-26v103z" />
    <glyph glyph-name="questiondown" unicode="&#xbf;" horiz-adv-x="394" 
d="M278 457v-4q0 -13 -7 -20t-20 -7h-2q-13 0 -20 7t-7 20v4q0 26 27 26h2q27 0 27 -26zM269 280q0 -41 -14.5 -72.5t-55.5 -80.5l-10 -12q-46 -54 -68 -85t-31 -55.5t-9 -53.5q0 -31 10 -53.5t32 -40.5q17 -13 43.5 -20.5t71.5 -7.5q52 0 108 14l4 -21q-16 -7 -51.5 -13.5
t-72.5 -6.5q-78 0 -122 33q-27 20 -40 47.5t-13 69.5q0 47 20 84.5t77 104.5q47 54 63.5 78t22 49t5.5 76h27q3 -15 3 -34z" />
    <glyph glyph-name="Agrave" unicode="&#xc0;" horiz-adv-x="528" 
d="M26 0zM239 684h39l224 -684h-32l-62 193h-291l-59 -193h-32zM399 220l-140 435l-133 -435h273zM163 874l28 33l162 -149l-13 -16z" />
    <glyph glyph-name="Aacute" unicode="&#xc1;" horiz-adv-x="528" 
d="M26 0zM239 684h39l224 -684h-32l-62 193h-291l-59 -193h-32zM399 220l-140 435l-133 -435h273zM184 758l162 149l28 -33l-177 -132z" />
    <glyph glyph-name="Acircumflex" unicode="&#xc2;" horiz-adv-x="528" 
d="M26 0zM239 684h39l224 -684h-32l-62 193h-291l-59 -193h-32zM399 220l-140 435l-133 -435h273zM121 745l118 126h39l118 -126l-15 -16l-122 115l-122 -115z" />
    <glyph glyph-name="Atilde" unicode="&#xc3;" horiz-adv-x="528" 
d="M26 0zM239 684h39l224 -684h-32l-62 193h-291l-59 -193h-32zM399 220l-140 435l-133 -435h273zM291 776.5q-13 5.5 -35 17.5q-20 10 -31.5 15t-24.5 5q-27 0 -44 -40l-23 6q14 68 66 68q17 0 32 -6t34 -18q19 -10 30 -15t24 -5q26 0 44 40l22 -6q-14 -67 -65 -67
q-16 0 -29 5.5z" />
    <glyph glyph-name="Adieresis" unicode="&#xc4;" horiz-adv-x="528" 
d="M26 0zM239 684h39l224 -684h-32l-62 193h-291l-59 -193h-32zM399 220l-140 435l-133 -435h273zM147 791.5q-9 8.5 -9 23.5v4q0 15 9 24t24 9h2q15 0 24 -9t9 -24v-4q0 -15 -9 -23.5t-24 -8.5h-2q-15 0 -24 8.5zM321 791.5q-9 8.5 -9 23.5v4q0 15 9 24t24 9h2q15 0 24 -9
t9 -24v-4q0 -15 -9 -23.5t-24 -8.5h-2q-15 0 -24 8.5z" />
    <glyph glyph-name="Aring" unicode="&#xc5;" horiz-adv-x="528" 
d="M26 0zM239 684h39l224 -684h-32l-62 193h-291l-59 -193h-32zM399 220l-140 435l-133 -435h273zM336.5 930q26.5 -28 26.5 -73t-27 -73t-76 -28h-4q-49 0 -75 28t-26 73t26.5 73t75.5 28h4q49 0 75.5 -28zM333 858q0 36 -18 54.5t-54 18.5h-5q-34 0 -52.5 -19t-18.5 -54
v-3q0 -35 18.5 -54t51.5 -19h5q36 0 54.5 19t18.5 54v3zM155 858v-1v-1v2zM363 856v1v1v-2z" />
    <glyph glyph-name="AE" unicode="&#xc6;" horiz-adv-x="803" 
d="M394 684h341l-6 -27h-291v-296h243v-27h-243v-306h307v-28h-337v189h-259l-107 -189h-32zM408 216v437l-244 -437h244z" />
    <glyph glyph-name="Ccedilla" unicode="&#xc7;" horiz-adv-x="516" 
d="M332 -14q-6 -14 -6 -23q0 -17 11.5 -24t36.5 -14q29 -7 45.5 -18.5t16.5 -40.5q0 -25 -19 -40.5t-57 -15.5q-31 0 -61 8v21q36 -6 57 -6q54 0 54 32q0 17 -13 25t-39 15q-28 8 -41.5 16.5t-13.5 27.5t12 38q-120 6 -185.5 88t-65.5 257q0 186 72.5 275.5t197.5 89.5
q38 0 76 -7.5t67 -18.5l-7 -28q-67 24 -130 24q-113 0 -178.5 -79.5t-65.5 -256.5q0 -165 61 -239.5t186 -74.5q50 0 84 8t39 9l5 -28q-66 -20 -134 -20h-5z" />
    <glyph glyph-name="Egrave" unicode="&#xc8;" horiz-adv-x="489" 
d="M94 0zM94 684h327l-6 -27h-291v-296h243v-27h-243v-307h307v-27h-337v684zM159 874l28 33l162 -149l-13 -16z" />
    <glyph glyph-name="Eacute" unicode="&#xc9;" horiz-adv-x="489" 
d="M94 0zM94 684h327l-6 -27h-291v-296h243v-27h-243v-307h307v-27h-337v684zM183 758l162 149l28 -33l-177 -132z" />
    <glyph glyph-name="Ecircumflex" unicode="&#xca;" horiz-adv-x="489" 
d="M94 0zM94 684h327l-6 -27h-291v-296h243v-27h-243v-307h307v-27h-337v684zM117 745l118 126h39l118 -126l-15 -16l-122 115l-122 -115z" />
    <glyph glyph-name="Edieresis" unicode="&#xcb;" horiz-adv-x="489" 
d="M94 0zM94 684h327l-6 -27h-291v-296h243v-27h-243v-307h307v-27h-337v684zM143 791.5q-9 8.5 -9 23.5v4q0 15 9 24t24 9h2q15 0 24 -9t9 -24v-4q0 -15 -9 -23.5t-24 -8.5h-2q-15 0 -24 8.5zM317 791.5q-9 8.5 -9 23.5v4q0 15 9 24t24 9h2q15 0 24 -9t9 -24v-4
q0 -15 -9 -23.5t-24 -8.5h-2q-15 0 -24 8.5z" />
    <glyph glyph-name="Igrave" unicode="&#xcc;" horiz-adv-x="218" 
d="M13 0zM94 684h30v-684h-30v684zM13 874l28 33l162 -149l-13 -16z" />
    <glyph glyph-name="Iacute" unicode="&#xcd;" horiz-adv-x="218" 
d="M34 0zM94 684h30v-684h-30v684zM34 758l162 149l28 -33l-177 -132z" />
    <glyph glyph-name="Icircumflex" unicode="&#xce;" horiz-adv-x="218" 
d="M0 0zM94 684h30v-684h-30v684zM-29 745l118 126h39l118 -126l-15 -16l-122 115l-122 -115z" />
    <glyph glyph-name="Idieresis" unicode="&#xcf;" horiz-adv-x="218" 
d="M0 0zM94 684h30v-684h-30v684zM-3 791.5q-9 8.5 -9 23.5v4q0 15 9 24t24 9h2q15 0 24 -9t9 -24v-4q0 -15 -9 -23.5t-24 -8.5h-2q-15 0 -24 8.5zM171 791.5q-9 8.5 -9 23.5v4q0 15 9 24t24 9h2q15 0 24 -9t9 -24v-4q0 -15 -9 -23.5t-24 -8.5h-2q-15 0 -24 8.5z" />
    <glyph glyph-name="Eth" unicode="&#xd0;" horiz-adv-x="595" 
d="M511 524q20 -66 20 -180q0 -109 -19.5 -178.5t-59.5 -107.5q-33 -31 -81.5 -44.5t-113.5 -13.5h-178v333h-83v14l83 13v324h149q81 0 133 -12t91 -47t59 -101zM481 178.5q18 64.5 18 170.5q0 102 -16.5 161.5t-51.5 91.5t-82.5 43.5t-117.5 11.5h-122v-297h165v-27h-165
v-306h139q65 0 108.5 13.5t71.5 40.5q35 33 53 97.5z" />
    <glyph glyph-name="Ntilde" unicode="&#xd1;" horiz-adv-x="651" 
d="M94 0zM94 684h22l413 -624v624h28v-684h-23l-412 624v-624h-28v684zM358 776.5q-13 5.5 -35 17.5q-20 10 -31.5 15t-24.5 5q-27 0 -44 -40l-23 6q14 68 66 68q17 0 32 -6t34 -18q19 -10 30 -15t24 -5q26 0 44 40l22 -6q-14 -67 -65 -67q-16 0 -29 5.5z" />
    <glyph glyph-name="Ograve" unicode="&#xd2;" horiz-adv-x="619" 
d="M64 0zM64 341q0 356 246 356q245 0 245 -356q0 -355 -245 -355q-246 0 -246 355zM473 99q50 82 50 242q0 161 -50 243.5t-163 82.5t-163.5 -82.5t-50.5 -243.5q0 -160 50.5 -242t163.5 -82t163 82zM214 874l28 33l162 -149l-13 -16z" />
    <glyph glyph-name="Oacute" unicode="&#xd3;" horiz-adv-x="619" 
d="M64 0zM64 341q0 356 246 356q245 0 245 -356q0 -355 -245 -355q-246 0 -246 355zM473 99q50 82 50 242q0 161 -50 243.5t-163 82.5t-163.5 -82.5t-50.5 -243.5q0 -160 50.5 -242t163.5 -82t163 82zM235 758l162 149l28 -33l-177 -132z" />
    <glyph glyph-name="Ocircumflex" unicode="&#xd4;" horiz-adv-x="619" 
d="M64 0zM64 341q0 356 246 356q245 0 245 -356q0 -355 -245 -355q-246 0 -246 355zM473 99q50 82 50 242q0 161 -50 243.5t-163 82.5t-163.5 -82.5t-50.5 -243.5q0 -160 50.5 -242t163.5 -82t163 82zM172 745l118 126h39l118 -126l-15 -16l-122 115l-122 -115z" />
    <glyph glyph-name="Otilde" unicode="&#xd5;" horiz-adv-x="619" 
d="M64 0zM64 341q0 356 246 356q245 0 245 -356q0 -355 -245 -355q-246 0 -246 355zM473 99q50 82 50 242q0 161 -50 243.5t-163 82.5t-163.5 -82.5t-50.5 -243.5q0 -160 50.5 -242t163.5 -82t163 82zM342 776.5q-13 5.5 -35 17.5q-20 10 -31.5 15t-24.5 5q-27 0 -44 -40
l-23 6q14 68 66 68q17 0 32 -6t34 -18q19 -10 30 -15t24 -5q26 0 44 40l22 -6q-14 -67 -65 -67q-16 0 -29 5.5z" />
    <glyph glyph-name="Odieresis" unicode="&#xd6;" horiz-adv-x="619" 
d="M64 0zM64 341q0 356 246 356q245 0 245 -356q0 -355 -245 -355q-246 0 -246 355zM473 99q50 82 50 242q0 161 -50 243.5t-163 82.5t-163.5 -82.5t-50.5 -243.5q0 -160 50.5 -242t163.5 -82t163 82zM198 791.5q-9 8.5 -9 23.5v4q0 15 9 24t24 9h2q15 0 24 -9t9 -24v-4
q0 -15 -9 -23.5t-24 -8.5h-2q-15 0 -24 8.5zM372 791.5q-9 8.5 -9 23.5v4q0 15 9 24t24 9h2q15 0 24 -9t9 -24v-4q0 -15 -9 -23.5t-24 -8.5h-2q-15 0 -24 8.5z" />
    <glyph glyph-name="multiply" unicode="&#xd7;" horiz-adv-x="485" 
d="M131 243l94 94l-94 94l18 18l94 -94l94 94l18 -18l-94 -94l94 -94l-18 -18l-94 94l-94 -94z" />
    <glyph glyph-name="Oslash" unicode="&#xd8;" horiz-adv-x="619" 
d="M170 28q-106 80 -106 313q0 356 246 356q64 0 113 -25l34 85h30l-40 -101q108 -79 108 -315q0 -355 -245 -355q-67 0 -116 26l-34 -86h-30zM412 643q-42 24 -102 24q-113 0 -163.5 -82.5t-50.5 -243.5q0 -104 20.5 -175t65.5 -108zM473 99q50 82 50 242q0 214 -87 286
l-231 -585q43 -25 105 -25q113 0 163 82z" />
    <glyph glyph-name="Ugrave" unicode="&#xd9;" horiz-adv-x="622" 
d="M88 0zM134 49q-25 28 -35.5 69.5t-10.5 99.5v466h30v-465q0 -56 10 -93t32 -61q45 -49 151 -49q97 0 145 44q26 24 38 60t12 94v470h28v-477q0 -60 -13 -99t-43 -68q-26 -26 -65.5 -40t-99.5 -14q-125 0 -179 63zM215 874l28 33l162 -149l-13 -16z" />
    <glyph glyph-name="Uacute" unicode="&#xda;" horiz-adv-x="622" 
d="M88 0zM134 49q-25 28 -35.5 69.5t-10.5 99.5v466h30v-465q0 -56 10 -93t32 -61q45 -49 151 -49q97 0 145 44q26 24 38 60t12 94v470h28v-477q0 -60 -13 -99t-43 -68q-26 -26 -65.5 -40t-99.5 -14q-125 0 -179 63zM236 758l162 149l28 -33l-177 -132z" />
    <glyph glyph-name="Ucircumflex" unicode="&#xdb;" horiz-adv-x="622" 
d="M88 0zM134 49q-25 28 -35.5 69.5t-10.5 99.5v466h30v-465q0 -56 10 -93t32 -61q45 -49 151 -49q97 0 145 44q26 24 38 60t12 94v470h28v-477q0 -60 -13 -99t-43 -68q-26 -26 -65.5 -40t-99.5 -14q-125 0 -179 63zM173 745l118 126h39l118 -126l-15 -16l-122 115
l-122 -115z" />
    <glyph glyph-name="Udieresis" unicode="&#xdc;" horiz-adv-x="622" 
d="M88 0zM134 49q-25 28 -35.5 69.5t-10.5 99.5v466h30v-465q0 -56 10 -93t32 -61q45 -49 151 -49q97 0 145 44q26 24 38 60t12 94v470h28v-477q0 -60 -13 -99t-43 -68q-26 -26 -65.5 -40t-99.5 -14q-125 0 -179 63zM199 791.5q-9 8.5 -9 23.5v4q0 15 9 24t24 9h2
q15 0 24 -9t9 -24v-4q0 -15 -9 -23.5t-24 -8.5h-2q-15 0 -24 8.5zM373 791.5q-9 8.5 -9 23.5v4q0 15 9 24t24 9h2q15 0 24 -9t9 -24v-4q0 -15 -9 -23.5t-24 -8.5h-2q-15 0 -24 8.5z" />
    <glyph glyph-name="Yacute" unicode="&#xdd;" horiz-adv-x="516" 
d="M28 0zM238 280l-210 404h33l193 -376l202 376h32l-220 -404v-280h-30v280zM179 758l162 149l28 -33l-177 -132z" />
    <glyph glyph-name="Thorn" unicode="&#xde;" horiz-adv-x="536" 
d="M94 684h30v-114h160q106 0 151 -48q50 -53 50 -158q0 -103 -46 -155q-44 -51 -134 -51h-181v-158h-30v684zM293 185q48 0 75.5 10t47.5 33q21 24 29 55t8 79q0 92 -40 138q-37 43 -133 43h-156v-358h169z" />
    <glyph glyph-name="germandbls" unicode="&#xdf;" horiz-adv-x="565" 
d="M235 0l3 27q52 -13 119 -13q146 0 146 104q0 36 -17.5 61t-42.5 41t-66 35q-37 18 -59 31.5t-37 33.5t-15 48q0 36 19.5 59.5t59.5 52.5q41 30 61.5 54.5t20.5 62.5q0 46 -34 76.5t-93 30.5q-39 0 -70 -13t-51 -34q-23 -24 -31.5 -60.5t-8.5 -89.5v-507h-29v463h-88v21
l88 6v14q0 58 10 99.5t38 71.5q26 27 62.5 42t79.5 15q72 0 114 -37.5t42 -96.5q0 -47 -23.5 -75.5t-68.5 -61.5q-35 -25 -52 -44t-17 -46q0 -31 23.5 -49.5t74.5 -43.5q45 -22 73 -40t47.5 -47.5t19.5 -71.5q0 -74 -50 -103.5t-125 -29.5q-69 0 -123 14z" />
    <glyph glyph-name="agrave" unicode="&#xe0;" horiz-adv-x="472" 
d="M48 0zM92 24q-44 38 -44 114q0 62 34 97q23 23 58.5 33t91.5 10h136v52q0 82 -30 114q-31 32 -107 32q-66 0 -138 -18l-3 25q74 21 144 21q89 0 127 -41q36 -39 36 -120v-343h-22l-4 33q-32 -20 -76.5 -33.5t-88.5 -13.5q-70 0 -114 38zM300 27q40 13 68 30v194h-132
q-52 0 -82 -8.5t-47 -24.5q-29 -27 -29 -80q0 -62 36.5 -93t99.5 -31q46 0 86 13zM141 706l28 33l162 -149l-13 -16z" />
    <glyph glyph-name="aacute" unicode="&#xe1;" horiz-adv-x="472" 
d="M48 0zM92 24q-44 38 -44 114q0 62 34 97q23 23 58.5 33t91.5 10h136v52q0 82 -30 114q-31 32 -107 32q-66 0 -138 -18l-3 25q74 21 144 21q89 0 127 -41q36 -39 36 -120v-343h-22l-4 33q-32 -20 -76.5 -33.5t-88.5 -13.5q-70 0 -114 38zM300 27q40 13 68 30v194h-132
q-52 0 -82 -8.5t-47 -24.5q-29 -27 -29 -80q0 -62 36.5 -93t99.5 -31q46 0 86 13zM141 590l162 149l28 -33l-177 -132z" />
    <glyph glyph-name="acircumflex" unicode="&#xe2;" horiz-adv-x="472" 
d="M48 0zM92 24q-44 38 -44 114q0 62 34 97q23 23 58.5 33t91.5 10h136v52q0 82 -30 114q-31 32 -107 32q-66 0 -138 -18l-3 25q74 21 144 21q89 0 127 -41q36 -39 36 -120v-343h-22l-4 33q-32 -20 -76.5 -33.5t-88.5 -13.5q-70 0 -114 38zM300 27q40 13 68 30v194h-132
q-52 0 -82 -8.5t-47 -24.5q-29 -27 -29 -80q0 -62 36.5 -93t99.5 -31q46 0 86 13zM98 599l118 126h39l118 -126l-15 -16l-122 115l-122 -115z" />
    <glyph glyph-name="atilde" unicode="&#xe3;" horiz-adv-x="472" 
d="M48 0zM92 24q-44 38 -44 114q0 62 34 97q23 23 58.5 33t91.5 10h136v52q0 82 -30 114q-31 32 -107 32q-66 0 -138 -18l-3 25q74 21 144 21q89 0 127 -41q36 -39 36 -120v-343h-22l-4 33q-32 -20 -76.5 -33.5t-88.5 -13.5q-70 0 -114 38zM300 27q40 13 68 30v194h-132
q-52 0 -82 -8.5t-47 -24.5q-29 -27 -29 -80q0 -62 36.5 -93t99.5 -31q46 0 86 13zM268 614.5q-13 5.5 -35 17.5q-20 10 -31.5 15t-24.5 5q-27 0 -44 -40l-23 6q14 68 66 68q17 0 32 -6t34 -18q19 -10 30 -15t24 -5q26 0 44 40l22 -6q-14 -67 -65 -67q-16 0 -29 5.5z" />
    <glyph glyph-name="adieresis" unicode="&#xe4;" horiz-adv-x="472" 
d="M48 0zM92 24q-44 38 -44 114q0 62 34 97q23 23 58.5 33t91.5 10h136v52q0 82 -30 114q-31 32 -107 32q-66 0 -138 -18l-3 25q74 21 144 21q89 0 127 -41q36 -39 36 -120v-343h-22l-4 33q-32 -20 -76.5 -33.5t-88.5 -13.5q-70 0 -114 38zM300 27q40 13 68 30v194h-132
q-52 0 -82 -8.5t-47 -24.5q-29 -27 -29 -80q0 -62 36.5 -93t99.5 -31q46 0 86 13zM124 623.5q-9 8.5 -9 23.5v4q0 15 9 24t24 9h2q15 0 24 -9t9 -24v-4q0 -15 -9 -23.5t-24 -8.5h-2q-15 0 -24 8.5zM298 623.5q-9 8.5 -9 23.5v4q0 15 9 24t24 9h2q15 0 24 -9t9 -24v-4
q0 -15 -9 -23.5t-24 -8.5h-2q-15 0 -24 8.5z" />
    <glyph glyph-name="aring" unicode="&#xe5;" horiz-adv-x="472" 
d="M48 0zM92 24q-44 38 -44 114q0 62 34 97q23 23 58.5 33t91.5 10h136v52q0 82 -30 114q-31 32 -107 32q-66 0 -138 -18l-3 25q74 21 144 21q89 0 127 -41q36 -39 36 -120v-343h-22l-4 33q-32 -20 -76.5 -33.5t-88.5 -13.5q-70 0 -114 38zM300 27q40 13 68 30v194h-132
q-52 0 -82 -8.5t-47 -24.5q-29 -27 -29 -80q0 -62 36.5 -93t99.5 -31q46 0 86 13zM313.5 762q26.5 -28 26.5 -73t-27 -73t-76 -28h-4q-49 0 -75 28t-26 73t26.5 73t75.5 28h4q49 0 75.5 -28zM310 690q0 36 -18 54.5t-54 18.5h-5q-34 0 -52.5 -19t-18.5 -54v-3
q0 -35 18.5 -54t51.5 -19h5q36 0 54.5 19t18.5 54v3zM132 690v-1v-1v2zM340 688v1v1v-2z" />
    <glyph glyph-name="ae" unicode="&#xe6;" horiz-adv-x="787" 
d="M91.5 24.5q-43.5 38.5 -43.5 113.5q0 62 34 97q23 23 58.5 33t91.5 10h134v53q0 81 -31 114q-30 31 -107 31q-62 0 -135 -19l-5 26q74 21 144 21q89 0 127 -41q24 -25 31 -70q19 44 55 77.5t111 33.5q90 0 134 -63t44 -190v-11q0 -6 -2.5 -8.5t-9.5 -2.5h-328
q2 -108 46 -161t143 -53q31 0 65 4.5t59 11.5l4 -27q-21 -7 -59 -12.5t-71 -5.5q-116 0 -170 73q-37 -31 -93 -52t-111 -21q-72 0 -115.5 38.5zM705 256q0 113 -37.5 166.5t-111.5 53.5q-80 0 -120 -58t-42 -162h311zM310 30.5q47 15.5 87 49.5q-31 52 -31 171h-130
q-52 0 -82 -8.5t-47 -24.5q-29 -27 -29 -80q0 -62 36.5 -92.5t101.5 -30.5q47 0 94 15.5z" />
    <glyph glyph-name="ccedilla" unicode="&#xe7;" horiz-adv-x="420" 
d="M249.5 -61q11.5 -7 36.5 -14q29 -7 45.5 -18.5t16.5 -40.5q0 -25 -19 -40.5t-57 -15.5q-31 0 -61 8v21q36 -6 57 -6q54 0 54 32q0 17 -13 25t-39 15q-28 8 -41.5 16.5t-13.5 27.5q0 21 14 40q-86 12 -129.5 72.5t-43.5 182.5q0 136 54 198t159 62q64 0 110 -19l-3 -26
q-53 17 -105 17q-92 0 -138.5 -52t-46.5 -180q0 -123 47 -176t152 -53q48 0 91 9l4 -26q-45 -12 -98 -12q-13 0 -37 2q-7 -14 -7 -25q0 -17 11.5 -24z" />
    <glyph glyph-name="egrave" unicode="&#xe8;" horiz-adv-x="483" 
d="M56 0zM108.5 52q-52.5 66 -52.5 192q0 115 46 187.5t142 72.5q93 0 137.5 -62t44.5 -191v-11q0 -6 -2.5 -8.5t-9.5 -2.5h-328q2 -106 45.5 -160t142.5 -54q32 0 66 4.5t59 11.5l4 -27q-21 -7 -59 -12.5t-71 -5.5q-112 0 -164.5 66zM397 256q0 115 -38 167.5t-115 52.5
t-117 -59.5t-41 -160.5h311zM151 706l28 33l162 -149l-13 -16z" />
    <glyph glyph-name="eacute" unicode="&#xe9;" horiz-adv-x="483" 
d="M56 0zM108.5 52q-52.5 66 -52.5 192q0 115 46 187.5t142 72.5q93 0 137.5 -62t44.5 -191v-11q0 -6 -2.5 -8.5t-9.5 -2.5h-328q2 -106 45.5 -160t142.5 -54q32 0 66 4.5t59 11.5l4 -27q-21 -7 -59 -12.5t-71 -5.5q-112 0 -164.5 66zM397 256q0 115 -38 167.5t-115 52.5
t-117 -59.5t-41 -160.5h311zM151 590l162 149l28 -33l-177 -132z" />
    <glyph glyph-name="ecircumflex" unicode="&#xea;" horiz-adv-x="483" 
d="M56 0zM108.5 52q-52.5 66 -52.5 192q0 115 46 187.5t142 72.5q93 0 137.5 -62t44.5 -191v-11q0 -6 -2.5 -8.5t-9.5 -2.5h-328q2 -106 45.5 -160t142.5 -54q32 0 66 4.5t59 11.5l4 -27q-21 -7 -59 -12.5t-71 -5.5q-112 0 -164.5 66zM397 256q0 115 -38 167.5t-115 52.5
t-117 -59.5t-41 -160.5h311zM108 599l118 126h39l118 -126l-15 -16l-122 115l-122 -115z" />
    <glyph glyph-name="edieresis" unicode="&#xeb;" horiz-adv-x="483" 
d="M56 0zM108.5 52q-52.5 66 -52.5 192q0 115 46 187.5t142 72.5q93 0 137.5 -62t44.5 -191v-11q0 -6 -2.5 -8.5t-9.5 -2.5h-328q2 -106 45.5 -160t142.5 -54q32 0 66 4.5t59 11.5l4 -27q-21 -7 -59 -12.5t-71 -5.5q-112 0 -164.5 66zM397 256q0 115 -38 167.5t-115 52.5
t-117 -59.5t-41 -160.5h311zM134 623.5q-9 8.5 -9 23.5v4q0 15 9 24t24 9h2q15 0 24 -9t9 -24v-4q0 -15 -9 -23.5t-24 -8.5h-2q-15 0 -24 8.5zM308 623.5q-9 8.5 -9 23.5v4q0 15 9 24t24 9h2q15 0 24 -9t9 -24v-4q0 -15 -9 -23.5t-24 -8.5h-2q-15 0 -24 8.5z" />
    <glyph glyph-name="igrave" unicode="&#xec;" horiz-adv-x="185" 
d="M0 0zM78 490h29v-490h-29v490zM-2 706l28 33l162 -149l-13 -16z" />
    <glyph glyph-name="iacute" unicode="&#xed;" horiz-adv-x="185" 
d="M0 0zM78 490h29v-490h-29v490zM-2 590l162 149l28 -33l-177 -132z" />
    <glyph glyph-name="icircumflex" unicode="&#xee;" horiz-adv-x="185" 
d="M0 0zM78 490h29v-490h-29v490zM-45 599l118 126h39l118 -126l-15 -16l-122 115l-122 -115z" />
    <glyph glyph-name="idieresis" unicode="&#xef;" horiz-adv-x="185" 
d="M0 0zM78 490h29v-490h-29v490zM-19 623.5q-9 8.5 -9 23.5v4q0 15 9 24t24 9h2q15 0 24 -9t9 -24v-4q0 -15 -9 -23.5t-24 -8.5h-2q-15 0 -24 8.5zM155 623.5q-9 8.5 -9 23.5v4q0 15 9 24t24 9h2q15 0 24 -9t9 -24v-4q0 -15 -9 -23.5t-24 -8.5h-2q-15 0 -24 8.5z" />
    <glyph glyph-name="eth" unicode="&#xf0;" horiz-adv-x="526" 
d="M112 47q-54 61 -54 180q0 116 53.5 177.5t152.5 61.5q34 0 74.5 -9t78.5 -25q-30 108 -117 217l-78 -57l-13 18l76 55q-46 51 -100 89l17 20q65 -48 106 -92l82 59l13 -18l-80 -57q67 -79 105 -176t38 -219q0 -143 -54 -214t-153 -71q-93 0 -147 61zM436 266
q0 72 -13 137q-86 35 -152 35q-91 0 -137 -54.5t-46 -156.5q0 -97 42.5 -155t129.5 -58q176 0 176 252z" />
    <glyph glyph-name="ntilde" unicode="&#xf1;" horiz-adv-x="516" 
d="M78 0zM78 490h22l4 -38q87 52 176 52q79 0 121 -39q23 -20 31.5 -49t8.5 -70v-346h-29v327q0 45 -7.5 71.5t-24.5 43.5q-15 15 -43.5 24.5t-64.5 9.5q-74 0 -165 -49v-427h-29v490zM290 614.5q-13 5.5 -35 17.5q-20 10 -31.5 15t-24.5 5q-27 0 -44 -40l-23 6q14 68 66 68
q17 0 32 -6t34 -18q19 -10 30 -15t24 -5q26 0 44 40l22 -6q-14 -67 -65 -67q-16 0 -29 5.5z" />
    <glyph glyph-name="ograve" unicode="&#xf2;" horiz-adv-x="509" 
d="M56 0zM104 51.5q-48 65.5 -48 193.5q0 129 48 194t151 65q102 0 150 -65.5t48 -193.5t-48 -193.5t-150 -65.5q-103 0 -151 65.5zM384.5 72.5q38.5 57.5 38.5 172.5t-39 173t-129 58q-91 0 -130 -58t-39 -173t39 -172.5t130 -57.5t129.5 57.5zM160 706l28 33l162 -149
l-13 -16z" />
    <glyph glyph-name="oacute" unicode="&#xf3;" horiz-adv-x="509" 
d="M56 0zM104 51.5q-48 65.5 -48 193.5q0 129 48 194t151 65q102 0 150 -65.5t48 -193.5t-48 -193.5t-150 -65.5q-103 0 -151 65.5zM384.5 72.5q38.5 57.5 38.5 172.5t-39 173t-129 58q-91 0 -130 -58t-39 -173t39 -172.5t130 -57.5t129.5 57.5zM160 590l162 149l28 -33
l-177 -132z" />
    <glyph glyph-name="ocircumflex" unicode="&#xf4;" horiz-adv-x="509" 
d="M56 0zM104 51.5q-48 65.5 -48 193.5q0 129 48 194t151 65q102 0 150 -65.5t48 -193.5t-48 -193.5t-150 -65.5q-103 0 -151 65.5zM384.5 72.5q38.5 57.5 38.5 172.5t-39 173t-129 58q-91 0 -130 -58t-39 -173t39 -172.5t130 -57.5t129.5 57.5zM117 599l118 126h39
l118 -126l-15 -16l-122 115l-122 -115z" />
    <glyph glyph-name="otilde" unicode="&#xf5;" horiz-adv-x="509" 
d="M56 0zM104 51.5q-48 65.5 -48 193.5q0 129 48 194t151 65q102 0 150 -65.5t48 -193.5t-48 -193.5t-150 -65.5q-103 0 -151 65.5zM384.5 72.5q38.5 57.5 38.5 172.5t-39 173t-129 58q-91 0 -130 -58t-39 -173t39 -172.5t130 -57.5t129.5 57.5zM287 614.5q-13 5.5 -35 17.5
q-20 10 -31.5 15t-24.5 5q-27 0 -44 -40l-23 6q14 68 66 68q17 0 32 -6t34 -18q19 -10 30 -15t24 -5q26 0 44 40l22 -6q-14 -67 -65 -67q-16 0 -29 5.5z" />
    <glyph glyph-name="odieresis" unicode="&#xf6;" horiz-adv-x="509" 
d="M56 0zM104 51.5q-48 65.5 -48 193.5q0 129 48 194t151 65q102 0 150 -65.5t48 -193.5t-48 -193.5t-150 -65.5q-103 0 -151 65.5zM384.5 72.5q38.5 57.5 38.5 172.5t-39 173t-129 58q-91 0 -130 -58t-39 -173t39 -172.5t130 -57.5t129.5 57.5zM143 623.5q-9 8.5 -9 23.5v4
q0 15 9 24t24 9h2q15 0 24 -9t9 -24v-4q0 -15 -9 -23.5t-24 -8.5h-2q-15 0 -24 8.5zM317 623.5q-9 8.5 -9 23.5v4q0 15 9 24t24 9h2q15 0 24 -9t9 -24v-4q0 -15 -9 -23.5t-24 -8.5h-2q-15 0 -24 8.5z" />
    <glyph glyph-name="divide" unicode="&#xf7;" horiz-adv-x="485" 
d="M96 157zM210 183v4q0 13 7 20t20 7h2q13 0 20 -7t7 -20v-4q0 -26 -27 -26h-2q-27 0 -27 26zM210 473v4q0 13 7 20t20 7h2q13 0 20 -7t7 -20v-4q0 -26 -27 -26h-2q-27 0 -27 26zM96 349h293v-26h-293v26z" />
    <glyph glyph-name="oslash" unicode="&#xf8;" horiz-adv-x="509" 
d="M144 14q-88 56 -88 231q0 129 48 194t151 65q49 0 85 -15l39 93h29l-44 -106q89 -55 89 -231q0 -128 -48 -193.5t-150 -65.5q-52 0 -87 16l-39 -94h-29zM330 463q-34 13 -75 13q-91 0 -130 -58t-39 -173q0 -76 16.5 -127t52.5 -76zM384.5 72.5q38.5 57.5 38.5 172.5
q0 77 -16.5 128t-53.5 76l-174 -420q33 -14 76 -14q91 0 129.5 57.5z" />
    <glyph glyph-name="ugrave" unicode="&#xf9;" horiz-adv-x="514" 
d="M75 0zM115 25q-23 20 -31.5 49t-8.5 70v346h29v-327q0 -45 7.5 -71.5t24.5 -43.5q16 -16 43.5 -25t63.5 -9q73 0 164 49v427h29v-490h-22l-4 38q-87 -52 -175 -52q-78 0 -120 39zM162 706l28 33l162 -149l-13 -16z" />
    <glyph glyph-name="uacute" unicode="&#xfa;" horiz-adv-x="514" 
d="M75 0zM115 25q-23 20 -31.5 49t-8.5 70v346h29v-327q0 -45 7.5 -71.5t24.5 -43.5q16 -16 43.5 -25t63.5 -9q73 0 164 49v427h29v-490h-22l-4 38q-87 -52 -175 -52q-78 0 -120 39zM162 590l162 149l28 -33l-177 -132z" />
    <glyph glyph-name="ucircumflex" unicode="&#xfb;" horiz-adv-x="514" 
d="M75 0zM115 25q-23 20 -31.5 49t-8.5 70v346h29v-327q0 -45 7.5 -71.5t24.5 -43.5q16 -16 43.5 -25t63.5 -9q73 0 164 49v427h29v-490h-22l-4 38q-87 -52 -175 -52q-78 0 -120 39zM119 599l118 126h39l118 -126l-15 -16l-122 115l-122 -115z" />
    <glyph glyph-name="udieresis" unicode="&#xfc;" horiz-adv-x="514" 
d="M75 0zM115 25q-23 20 -31.5 49t-8.5 70v346h29v-327q0 -45 7.5 -71.5t24.5 -43.5q16 -16 43.5 -25t63.5 -9q73 0 164 49v427h29v-490h-22l-4 38q-87 -52 -175 -52q-78 0 -120 39zM145 623.5q-9 8.5 -9 23.5v4q0 15 9 24t24 9h2q15 0 24 -9t9 -24v-4q0 -15 -9 -23.5
t-24 -8.5h-2q-15 0 -24 8.5zM319 623.5q-9 8.5 -9 23.5v4q0 15 9 24t24 9h2q15 0 24 -9t9 -24v-4q0 -15 -9 -23.5t-24 -8.5h-2q-15 0 -24 8.5z" />
    <glyph glyph-name="yacute" unicode="&#xfd;" horiz-adv-x="514" 
d="M75 0zM204 -232l-7 27q30 -6 65 -6q79 0 114 29q18 15 24.5 40.5t6.5 69.5v108q-84 -50 -172 -50q-78 0 -120 39q-23 20 -31.5 49t-8.5 70v346h29v-327q0 -44 7 -71t25 -44q17 -16 44 -25t62 -9q74 0 165 49v427h29v-564q0 -46 -7.5 -77t-27.5 -50q-41 -38 -129 -38
q-45 0 -68 7zM162 590l162 149l28 -33l-177 -132z" />
    <glyph glyph-name="thorn" unicode="&#xfe;" horiz-adv-x="499" 
d="M395.5 444.5q47.5 -59.5 47.5 -197.5q0 -126 -40.5 -193.5t-144.5 -67.5q-45 0 -86 16t-65 34v-261h-29v940h29v-262q29 19 69.5 35t79.5 16q92 0 139.5 -59.5zM380 74.5q33 59.5 33 173.5q0 121 -38.5 174.5t-123.5 53.5q-34 0 -71.5 -13.5t-72.5 -36.5v-360
q26 -21 66.5 -36t81.5 -15q92 0 125 59.5z" />
    <glyph glyph-name="ydieresis" unicode="&#xff;" horiz-adv-x="514" 
d="M75 0zM204 -232l-7 27q30 -6 65 -6q79 0 114 29q18 15 24.5 40.5t6.5 69.5v108q-84 -50 -172 -50q-78 0 -120 39q-23 20 -31.5 49t-8.5 70v346h29v-327q0 -44 7 -71t25 -44q17 -16 44 -25t62 -9q74 0 165 49v427h29v-564q0 -46 -7.5 -77t-27.5 -50q-41 -38 -129 -38
q-45 0 -68 7zM145 623.5q-9 8.5 -9 23.5v4q0 15 9 24t24 9h2q15 0 24 -9t9 -24v-4q0 -15 -9 -23.5t-24 -8.5h-2q-15 0 -24 8.5zM319 623.5q-9 8.5 -9 23.5v4q0 15 9 24t24 9h2q15 0 24 -9t9 -24v-4q0 -15 -9 -23.5t-24 -8.5h-2q-15 0 -24 8.5z" />
    <glyph glyph-name="Amacron" unicode="&#x100;" horiz-adv-x="528" 
d="M26 0zM239 684h39l224 -684h-32l-62 193h-291l-59 -193h-32zM399 220l-140 435l-133 -435h273zM147 842h223v-27h-223v27z" />
    <glyph glyph-name="amacron" unicode="&#x101;" horiz-adv-x="472" 
d="M48 0zM92 24q-44 38 -44 114q0 62 34 97q23 23 58.5 33t91.5 10h136v52q0 82 -30 114q-31 32 -107 32q-66 0 -138 -18l-3 25q74 21 144 21q89 0 127 -41q36 -39 36 -120v-343h-22l-4 33q-32 -20 -76.5 -33.5t-88.5 -13.5q-70 0 -114 38zM300 27q40 13 68 30v194h-132
q-52 0 -82 -8.5t-47 -24.5q-29 -27 -29 -80q0 -62 36.5 -93t99.5 -31q46 0 86 13zM124 653h223v-27h-223v27z" />
    <glyph glyph-name="Abreve" unicode="&#x102;" horiz-adv-x="528" 
d="M26 0zM239 684h39l224 -684h-32l-62 193h-291l-59 -193h-32zM399 220l-140 435l-133 -435h273zM177.5 779.5q-28.5 31.5 -31.5 83.5h24q4 -35 25.5 -59.5t63.5 -24.5q77 0 89 84h23q-3 -52 -31 -83.5t-81 -31.5t-81.5 31.5z" />
    <glyph glyph-name="abreve" unicode="&#x103;" horiz-adv-x="472" 
d="M48 0zM92 24q-44 38 -44 114q0 62 34 97q23 23 58.5 33t91.5 10h136v52q0 82 -30 114q-31 32 -107 32q-66 0 -138 -18l-3 25q74 21 144 21q89 0 127 -41q36 -39 36 -120v-343h-22l-4 33q-32 -20 -76.5 -33.5t-88.5 -13.5q-70 0 -114 38zM300 27q40 13 68 30v194h-132
q-52 0 -82 -8.5t-47 -24.5q-29 -27 -29 -80q0 -62 36.5 -93t99.5 -31q46 0 86 13zM154.5 613.5q-28.5 31.5 -31.5 83.5h24q4 -35 25.5 -59.5t63.5 -24.5q77 0 89 84h23q-3 -52 -31 -83.5t-81 -31.5t-81.5 31.5z" />
    <glyph glyph-name="Aogonek" unicode="&#x104;" horiz-adv-x="528" 
d="M380 -176.5q-23 21.5 -23 60.5q0 48 32.5 86t75.5 45l-57 178h-291l-59 -193h-32l213 684h39l224 -684h-5q-37 0 -63 -20q-20 -15 -34 -40.5t-14 -51.5q0 -30 17.5 -45.5t50.5 -15.5q29 0 56 5v-20q-20 -5 -33.5 -7.5t-32.5 -2.5q-41 0 -64 21.5zM399 220l-140 434
l-133 -434h273z" />
    <glyph glyph-name="aogonek" unicode="&#x105;" horiz-adv-x="472" 
d="M302 -176q-23 22 -23 60q0 83 95 125l-3 24q-32 -20 -76.5 -33.5t-88.5 -13.5q-70 0 -114 38t-44 114q0 62 34 97q23 23 58.5 33t91.5 10h136v52q0 82 -30 114q-31 32 -107 32q-66 0 -138 -18l-3 25q74 21 144 21q89 0 127 -41q36 -39 36 -120v-343q-36 -15 -62.5 -42.5
t-26.5 -69.5q0 -30 16.5 -45.5t46.5 -15.5q17 0 26 1v-22q-16 -4 -36 -4q-36 0 -59 22zM300 27q40 13 68 30v194h-132q-52 0 -82 -8.5t-47 -24.5q-29 -27 -29 -80q0 -62 36.5 -93t99.5 -31q46 0 86 13z" />
    <glyph glyph-name="Cacute" unicode="&#x106;" horiz-adv-x="516" 
d="M64 0zM135.5 67.5q-71.5 81.5 -71.5 264.5q0 186 72.5 275.5t197.5 89.5q38 0 76 -7.5t67 -18.5l-7 -28q-67 24 -130 24q-113 0 -178.5 -79.5t-65.5 -256.5q0 -165 61 -239.5t186 -74.5q50 0 84 8t39 9l5 -28q-66 -20 -134 -20q-130 0 -201.5 81.5zM253 758l162 149
l28 -33l-177 -132z" />
    <glyph glyph-name="cacute" unicode="&#x107;" horiz-adv-x="420" 
d="M56 0zM113 45.5q-57 59.5 -57 198.5q0 136 54 198t159 62q64 0 110 -19l-3 -26q-53 17 -105 17q-92 0 -138.5 -52t-46.5 -180q0 -123 47 -176t152 -53q48 0 91 9l4 -26q-45 -12 -98 -12q-112 0 -169 59.5zM175 590l162 149l28 -33l-177 -132z" />
    <glyph glyph-name="Ccircumflex" unicode="&#x108;" horiz-adv-x="516" 
d="M64 0zM135.5 67.5q-71.5 81.5 -71.5 264.5q0 186 72.5 275.5t197.5 89.5q38 0 76 -7.5t67 -18.5l-7 -28q-67 24 -130 24q-113 0 -178.5 -79.5t-65.5 -256.5q0 -165 61 -239.5t186 -74.5q50 0 84 8t39 9l5 -28q-66 -20 -134 -20q-130 0 -201.5 81.5zM190 745l118 126h39
l118 -126l-15 -16l-122 115l-122 -115z" />
    <glyph glyph-name="ccircumflex" unicode="&#x109;" horiz-adv-x="420" 
d="M56 0zM113 45.5q-57 59.5 -57 198.5q0 136 54 198t159 62q64 0 110 -19l-3 -26q-53 17 -105 17q-92 0 -138.5 -52t-46.5 -180q0 -123 47 -176t152 -53q48 0 91 9l4 -26q-45 -12 -98 -12q-112 0 -169 59.5zM132 599l118 126h39l118 -126l-15 -16l-122 115l-122 -115z" />
    <glyph glyph-name="Cdotaccent" unicode="&#x10a;" horiz-adv-x="516" 
d="M64 0zM135.5 67.5q-71.5 81.5 -71.5 264.5q0 186 72.5 275.5t197.5 89.5q38 0 76 -7.5t67 -18.5l-7 -28q-67 24 -130 24q-113 0 -178.5 -79.5t-65.5 -256.5q0 -165 61 -239.5t186 -74.5q50 0 84 8t39 9l5 -28q-66 -20 -134 -20q-130 0 -201.5 81.5zM297 818v8q0 28 28 28
h6q28 0 28 -28v-8q0 -28 -28 -28h-6q-28 0 -28 28z" />
    <glyph glyph-name="cdotaccent" unicode="&#x10b;" horiz-adv-x="420" 
d="M56 0zM113 45.5q-57 59.5 -57 198.5q0 136 54 198t159 62q64 0 110 -19l-3 -26q-53 17 -105 17q-92 0 -138.5 -52t-46.5 -180q0 -123 47 -176t152 -53q48 0 91 9l4 -26q-45 -12 -98 -12q-112 0 -169 59.5zM239 650v8q0 28 28 28h6q28 0 28 -28v-8q0 -28 -28 -28h-6
q-28 0 -28 28z" />
    <glyph glyph-name="Ccaron" unicode="&#x10c;" horiz-adv-x="516" 
d="M64 0zM135.5 67.5q-71.5 81.5 -71.5 264.5q0 186 72.5 275.5t197.5 89.5q38 0 76 -7.5t67 -18.5l-7 -28q-67 24 -130 24q-113 0 -178.5 -79.5t-65.5 -256.5q0 -165 61 -239.5t186 -74.5q50 0 84 8t39 9l5 -28q-66 -20 -134 -20q-130 0 -201.5 81.5zM190 855l16 16
l122 -115l122 115l15 -16l-118 -126h-39z" />
    <glyph glyph-name="ccaron" unicode="&#x10d;" horiz-adv-x="420" 
d="M56 0zM113 45.5q-57 59.5 -57 198.5q0 136 54 198t159 62q64 0 110 -19l-3 -26q-53 17 -105 17q-92 0 -138.5 -52t-46.5 -180q0 -123 47 -176t152 -53q48 0 91 9l4 -26q-45 -12 -98 -12q-112 0 -169 59.5zM132 708l16 16l122 -115l122 115l15 -16l-118 -126h-39z" />
    <glyph glyph-name="Dcaron" unicode="&#x10e;" horiz-adv-x="610" 
d="M94 0zM94 684h149q81 0 133 -12t91 -47t59 -101t20 -180q0 -109 -19.5 -178.5t-59.5 -107.5q-33 -31 -81.5 -44.5t-113.5 -13.5h-178v684zM263 27q65 0 108.5 13.5t71.5 40.5q35 33 53 97.5t18 170.5q0 102 -16.5 161.5t-51.5 91.5t-82.5 43.5t-117.5 11.5h-122v-630h139
zM167 855l16 16l122 -115l122 115l15 -16l-118 -126h-39z" />
    <glyph glyph-name="dcaron" unicode="&#x10f;" horiz-adv-x="497" 
d="M56 0zM101.5 51q-45.5 65 -45.5 193q0 260 194 260q41 0 75.5 -9.5t68.5 -28.5v249h29v-715h-22l-4 31q-28 -18 -69.5 -31.5t-79.5 -13.5q-101 0 -146.5 65zM325.5 25.5q31.5 10.5 68.5 29.5v383q-39 21 -69.5 29.5t-68.5 8.5q-87 0 -128.5 -55.5t-41.5 -173.5
q0 -119 38 -175.5t126 -56.5q44 0 75.5 10.5zM499 649q-20 4 -20 25v2q0 9 6.5 15t15.5 6h2q13 0 19 -7.5t6 -26.5q0 -58 -14 -95h-15v81z" />
    <glyph glyph-name="Dcroat" unicode="&#x110;" horiz-adv-x="594" 
d="M510 524q20 -66 20 -180q0 -109 -19.5 -178.5t-59.5 -107.5q-33 -31 -81.5 -44.5t-113.5 -13.5h-178v333h-82v14l82 13v324h149q81 0 133 -12t91 -47t59 -101zM480 178.5q18 64.5 18 170.5q0 102 -16.5 161.5t-51.5 91.5t-82.5 43.5t-117.5 11.5h-122v-297h166v-27h-166
v-306h139q65 0 108.5 13.5t71.5 40.5q35 33 53 97.5z" />
    <glyph glyph-name="dcroat" unicode="&#x111;" horiz-adv-x="506" 
d="M502 598h-79v-598h-22l-4 31q-28 -18 -69.5 -31.5t-79.5 -13.5q-101 0 -146.5 65t-45.5 193q0 260 194 260q41 0 75.5 -9.5t68.5 -28.5v132h-133v26h133v91h29v-92l79 -6v-19zM394 438q-39 21 -69.5 29.5t-68.5 8.5q-87 0 -128.5 -55.5t-41.5 -173.5q0 -119 38 -175.5
t126 -56.5q44 0 75.5 10.5t68.5 29.5v383z" />
    <glyph glyph-name="Emacron" unicode="&#x112;" horiz-adv-x="489" 
d="M94 0zM94 684h327l-6 -27h-291v-296h243v-27h-243v-307h307v-27h-337v684zM143 842h223v-27h-223v27z" />
    <glyph glyph-name="emacron" unicode="&#x113;" horiz-adv-x="483" 
d="M56 0zM108.5 52q-52.5 66 -52.5 192q0 115 46 187.5t142 72.5q93 0 137.5 -62t44.5 -191v-11q0 -6 -2.5 -8.5t-9.5 -2.5h-328q2 -106 45.5 -160t142.5 -54q32 0 66 4.5t59 11.5l4 -27q-21 -7 -59 -12.5t-71 -5.5q-112 0 -164.5 66zM397 256q0 115 -38 167.5t-115 52.5
t-117 -59.5t-41 -160.5h311zM134 653h223v-27h-223v27z" />
    <glyph glyph-name="Ebreve" unicode="&#x114;" horiz-adv-x="489" 
d="M94 0zM94 684h327l-6 -27h-291v-296h243v-27h-243v-307h307v-27h-337v684zM175.5 779.5q-28.5 31.5 -31.5 83.5h24q4 -35 25.5 -59.5t63.5 -24.5q77 0 89 84h23q-3 -52 -31 -83.5t-81 -31.5t-81.5 31.5z" />
    <glyph glyph-name="ebreve" unicode="&#x115;" horiz-adv-x="483" 
d="M56 0zM108.5 52q-52.5 66 -52.5 192q0 115 46 187.5t142 72.5q93 0 137.5 -62t44.5 -191v-11q0 -6 -2.5 -8.5t-9.5 -2.5h-328q2 -106 45.5 -160t142.5 -54q32 0 66 4.5t59 11.5l4 -27q-21 -7 -59 -12.5t-71 -5.5q-112 0 -164.5 66zM397 256q0 115 -38 167.5t-115 52.5
t-117 -59.5t-41 -160.5h311zM164.5 613.5q-28.5 31.5 -31.5 83.5h24q4 -35 25.5 -59.5t63.5 -24.5q77 0 89 84h23q-3 -52 -31 -83.5t-81 -31.5t-81.5 31.5z" />
    <glyph glyph-name="Edotaccent" unicode="&#x116;" horiz-adv-x="489" 
d="M94 0zM94 684h327l-6 -27h-291v-296h243v-27h-243v-307h307v-27h-337v684zM224 818v8q0 28 28 28h6q28 0 28 -28v-8q0 -28 -28 -28h-6q-28 0 -28 28z" />
    <glyph glyph-name="edotaccent" unicode="&#x117;" horiz-adv-x="483" 
d="M56 0zM108.5 52q-52.5 66 -52.5 192q0 115 46 187.5t142 72.5q93 0 137.5 -62t44.5 -191v-11q0 -6 -2.5 -8.5t-9.5 -2.5h-328q2 -106 45.5 -160t142.5 -54q32 0 66 4.5t59 11.5l4 -27q-21 -7 -59 -12.5t-71 -5.5q-112 0 -164.5 66zM397 256q0 115 -38 167.5t-115 52.5
t-117 -59.5t-41 -160.5h311zM215 650v8q0 28 28 28h6q28 0 28 -28v-8q0 -28 -28 -28h-6q-28 0 -28 28z" />
    <glyph glyph-name="Eogonek" unicode="&#x118;" horiz-adv-x="488" 
d="M311 -176.5q-23 21.5 -23 60.5q0 37 19.5 68t48.5 48h-262v684h327l-6 -27h-291v-296h243v-27h-243v-307h307v-27h-18q-30 0 -58 -28q-19 -19 -28.5 -41t-9.5 -43q0 -30 17.5 -45.5t50.5 -15.5q29 0 56 5v-20q-20 -5 -33.5 -7.5t-32.5 -2.5q-41 0 -64 21.5z" />
    <glyph glyph-name="eogonek" unicode="&#x119;" horiz-adv-x="483" 
d="M287 -176.5q-23 21.5 -23 60.5q0 32 15 60.5t39 44.5q-12 -3 -45 -3q-112 0 -164.5 66t-52.5 192q0 115 46 187.5t142 72.5q93 0 137.5 -62t44.5 -191v-11q0 -6 -2.5 -8.5t-9.5 -2.5h-328q2 -106 45.5 -160t142.5 -54q32 0 66 4.5t59 11.5l4 -27q-30 -8 -46 -15t-32 -23
q-32 -32 -32 -78q0 -30 17.5 -45.5t50.5 -15.5q28 0 56 5v-20q-20 -5 -33.5 -7.5t-32.5 -2.5q-41 0 -64 21.5zM397 256q0 115 -38 167.5t-115 52.5t-117 -59.5t-41 -160.5h311z" />
    <glyph glyph-name="Ecaron" unicode="&#x11a;" horiz-adv-x="489" 
d="M94 0zM94 684h327l-6 -27h-291v-296h243v-27h-243v-307h307v-27h-337v684zM122 855l16 16l122 -115l122 115l15 -16l-118 -126h-39z" />
    <glyph glyph-name="ecaron" unicode="&#x11b;" horiz-adv-x="483" 
d="M56 0zM108.5 52q-52.5 66 -52.5 192q0 115 46 187.5t142 72.5q93 0 137.5 -62t44.5 -191v-11q0 -6 -2.5 -8.5t-9.5 -2.5h-328q2 -106 45.5 -160t142.5 -54q32 0 66 4.5t59 11.5l4 -27q-21 -7 -59 -12.5t-71 -5.5q-112 0 -164.5 66zM397 256q0 115 -38 167.5t-115 52.5
t-117 -59.5t-41 -160.5h311zM108 708l16 16l122 -115l122 115l15 -16l-118 -126h-39z" />
    <glyph glyph-name="Gcircumflex" unicode="&#x11c;" horiz-adv-x="575" 
d="M64 0zM64 330q0 185 78 276t216 91q75 0 139 -23l-7 -28q-42 11 -70 16t-58 5q-129 0 -197.5 -83t-68.5 -251q0 -174 69.5 -245t188.5 -71q30 0 65.5 3.5t56.5 8.5v270h-125v27h153v-320q-23 -8 -67 -14t-85 -6q-288 0 -288 344zM200 745l118 126h39l118 -126l-15 -16
l-122 115l-122 -115z" />
    <glyph glyph-name="gcircumflex" unicode="&#x11d;" horiz-adv-x="486" 
d="M105 599l118 126h39l118 -126l-15 -16l-122 115l-122 -115zM91 -204q-51 35 -51 100q0 40 17 74.5t45 51.5q-29 17 -29 58q0 27 13.5 56.5t36.5 47.5q-30 22 -46.5 58t-16.5 86q0 86 48.5 131t128.5 45q61 0 97 -23l64 76q12 -4 21 -16l-64 -74q58 -48 58 -139
q0 -87 -48.5 -130.5t-129.5 -43.5q-49 0 -88 17q-17 -11 -31 -36.5t-14 -51.5q0 -20 10 -30q9 -9 26.5 -12.5t51.5 -2.5h86q59 0 88.5 -8t51.5 -30q33 -33 33 -92q0 -65 -39 -102q-47 -45 -162 -45q-106 0 -157 35zM346 221.5q38 39.5 38 106.5q0 71 -37.5 109.5
t-109.5 38.5t-110 -39t-38 -109t38 -108t108 -38q73 0 111 39.5zM380 -182q39 29 39 89q0 59 -34 81t-104 22h-96q-46 0 -59 4q-29 -21 -42.5 -51.5t-13.5 -62.5q0 -54 41.5 -82.5t135.5 -28.5t133 29z" />
    <glyph glyph-name="Gbreve" unicode="&#x11e;" horiz-adv-x="575" 
d="M64 0zM64 330q0 185 78 276t216 91q75 0 139 -23l-7 -28q-42 11 -70 16t-58 5q-129 0 -197.5 -83t-68.5 -251q0 -174 69.5 -245t188.5 -71q30 0 65.5 3.5t56.5 8.5v270h-125v27h153v-320q-23 -8 -67 -14t-85 -6q-288 0 -288 344zM256.5 779.5q-28.5 31.5 -31.5 83.5h24
q4 -35 25.5 -59.5t63.5 -24.5q77 0 89 84h23q-3 -52 -31 -83.5t-81 -31.5t-81.5 31.5z" />
    <glyph glyph-name="gbreve" unicode="&#x11f;" horiz-adv-x="486" 
d="M161.5 613.5q-28.5 31.5 -31.5 83.5h24q4 -35 25.5 -59.5t63.5 -24.5q77 0 89 84h23q-3 -52 -31 -83.5t-81 -31.5t-81.5 31.5zM91 -204q-51 35 -51 100q0 40 17 74.5t45 51.5q-29 17 -29 58q0 27 13.5 56.5t36.5 47.5q-30 22 -46.5 58t-16.5 86q0 86 48.5 131t128.5 45
q61 0 97 -23l64 76q12 -4 21 -16l-64 -74q58 -48 58 -139q0 -87 -48.5 -130.5t-129.5 -43.5q-49 0 -88 17q-17 -11 -31 -36.5t-14 -51.5q0 -20 10 -30q9 -9 26.5 -12.5t51.5 -2.5h86q59 0 88.5 -8t51.5 -30q33 -33 33 -92q0 -65 -39 -102q-47 -45 -162 -45q-106 0 -157 35z
M346 221.5q38 39.5 38 106.5q0 71 -37.5 109.5t-109.5 38.5t-110 -39t-38 -109t38 -108t108 -38q73 0 111 39.5zM380 -182q39 29 39 89q0 59 -34 81t-104 22h-96q-46 0 -59 4q-29 -21 -42.5 -51.5t-13.5 -62.5q0 -54 41.5 -82.5t135.5 -28.5t133 29z" />
    <glyph glyph-name="Gdotaccent" unicode="&#x120;" horiz-adv-x="575" 
d="M64 0zM64 330q0 185 78 276t216 91q75 0 139 -23l-7 -28q-42 11 -70 16t-58 5q-129 0 -197.5 -83t-68.5 -251q0 -174 69.5 -245t188.5 -71q30 0 65.5 3.5t56.5 8.5v270h-125v27h153v-320q-23 -8 -67 -14t-85 -6q-288 0 -288 344zM307 818v8q0 28 28 28h6q28 0 28 -28v-8
q0 -28 -28 -28h-6q-28 0 -28 28z" />
    <glyph glyph-name="gdotaccent" unicode="&#x121;" horiz-adv-x="486" 
d="M40 0zM449 -92q0 -65 -39 -102q-47 -45 -162 -45q-106 0 -157 35t-51 100q0 40 17 74.5t45 51.5q-15 8 -22 24t-7 34q0 27 14 57t37 47q-30 22 -47 58t-17 86q0 86 48.5 131t128.5 45q43 0 69 -10l64 123q12 -4 24 -12l-63 -122q82 -47 82 -155q0 -87 -48.5 -130.5
t-129.5 -43.5q-49 0 -88 17q-17 -11 -31 -36.5t-14 -51.5q0 -20 10 -30q9 -9 26.5 -12.5t51.5 -2.5h86q59 0 88.5 -8t51.5 -30q33 -33 33 -92zM127 220q38 -38 108 -38q73 0 111 39.5t38 106.5q0 71 -37.5 109.5t-109.5 38.5t-110 -39t-38 -109t38 -108zM380 -182
q39 29 39 89q0 59 -34 81t-104 22h-96q-46 0 -59 4q-29 -21 -42.5 -51.5t-13.5 -62.5q0 -54 41.5 -82.5t135.5 -28.5t133 29zM202 650v8q0 28 28 28h6q28 0 28 -28v-8q0 -28 -28 -28h-6q-28 0 -28 28z" />
    <glyph glyph-name="Gcommaaccent" unicode="&#x122;" horiz-adv-x="575" 
d="M64 0zM64 330q0 185 78 276t216 91q75 0 139 -23l-7 -28q-42 11 -70 16t-58 5q-129 0 -197.5 -83t-68.5 -251q0 -174 69.5 -245t188.5 -71q30 0 65.5 3.5t56.5 8.5v270h-125v27h153v-320q-23 -8 -67 -14t-85 -6q-288 0 -288 344zM333 -118q-20 4 -20 25v2q0 9 6.5 15
t15.5 6h2q13 0 19 -7.5t6 -26.5q0 -58 -14 -95h-15v81z" />
    <glyph glyph-name="gcommaaccent" unicode="&#x123;" horiz-adv-x="486" 
d="M241 649q20 -4 20 -25v-2q0 -9 -6.5 -15t-15.5 -6h-2q-13 0 -19 7.5t-6 26.5q0 58 14 95h15v-81zM91 -204q-51 35 -51 100q0 40 17 74.5t45 51.5q-29 17 -29 58q0 27 13.5 56.5t36.5 47.5q-30 22 -46.5 58t-16.5 86q0 86 48.5 131t128.5 45q61 0 97 -23l64 76
q12 -4 21 -16l-64 -74q58 -48 58 -139q0 -87 -48.5 -130.5t-129.5 -43.5q-49 0 -88 17q-17 -11 -31 -36.5t-14 -51.5q0 -20 10 -30q9 -9 26.5 -12.5t51.5 -2.5h86q59 0 88.5 -8t51.5 -30q33 -33 33 -92q0 -65 -39 -102q-47 -45 -162 -45q-106 0 -157 35zM346 221.5
q38 39.5 38 106.5q0 71 -37.5 109.5t-109.5 38.5t-110 -39t-38 -109t38 -108t108 -38q73 0 111 39.5zM380 -182q39 29 39 89q0 59 -34 81t-104 22h-96q-46 0 -59 4q-29 -21 -42.5 -51.5t-13.5 -62.5q0 -54 41.5 -82.5t135.5 -28.5t133 29z" />
    <glyph glyph-name="Hcircumflex" unicode="&#x124;" horiz-adv-x="625" 
d="M94 0zM94 684h30v-324h377v324h30v-684h-30v333h-377v-333h-30v684zM175 745l118 126h39l118 -126l-15 -16l-122 115l-122 -115z" />
    <glyph glyph-name="hcircumflex" unicode="&#x125;" horiz-adv-x="516" 
d="M0 0zM432.5 416q8.5 -29 8.5 -70v-346h-29v327q0 45 -7.5 71.5t-24.5 43.5q-15 15 -43.5 24.5t-64.5 9.5q-74 0 -165 -49v-427h-29v715h29v-262q84 51 173 51q79 0 121 -39q23 -20 31.5 -49zM-46 705l118 126h39l118 -126l-15 -16l-122 115l-122 -115z" />
    <glyph glyph-name="Hbar" unicode="&#x126;" horiz-adv-x="664" 
d="M622 521h-71v-521h-30v333h-377v-333h-30v521h-71v26h71v137h30v-137h377v137h30v-137h71v-26zM521 521h-377v-161h377v161z" />
    <glyph glyph-name="hbar" unicode="&#x127;" horiz-adv-x="518" 
d="M433.5 416q8.5 -29 8.5 -70v-346h-29v327q0 45 -7.5 71.5t-24.5 43.5q-15 15 -43.5 24.5t-64.5 9.5q-74 0 -165 -49v-427h-29v598h-79v19l79 6v92h29v-91h133v-26h-133v-145q84 51 173 51q79 0 121 -39q23 -20 31.5 -49z" />
    <glyph glyph-name="Itilde" unicode="&#x128;" horiz-adv-x="218" 
d="M0 0zM94 684h30v-684h-30v684zM141 776.5q-13 5.5 -35 17.5q-20 10 -31.5 15t-24.5 5q-27 0 -44 -40l-23 6q14 68 66 68q17 0 32 -6t34 -18q19 -10 30 -15t24 -5q26 0 44 40l22 -6q-14 -67 -65 -67q-16 0 -29 5.5z" />
    <glyph glyph-name="itilde" unicode="&#x129;" horiz-adv-x="185" 
d="M0 0zM78 490h29v-490h-29v490zM125 614.5q-13 5.5 -35 17.5q-20 10 -31.5 15t-24.5 5q-27 0 -44 -40l-23 6q14 68 66 68q17 0 32 -6t34 -18q19 -10 30 -15t24 -5q26 0 44 40l22 -6q-14 -67 -65 -67q-16 0 -29 5.5z" />
    <glyph glyph-name="Imacron" unicode="&#x12a;" horiz-adv-x="218" 
d="M0 0zM94 684h30v-684h-30v684zM-3 842h223v-27h-223v27z" />
    <glyph glyph-name="imacron" unicode="&#x12b;" horiz-adv-x="185" 
d="M0 0zM78 490h29v-490h-29v490zM-19 653h223v-27h-223v27z" />
    <glyph glyph-name="Ibreve" unicode="&#x12c;" horiz-adv-x="218" 
d="M0 0zM94 684h30v-684h-30v684zM27.5 779.5q-28.5 31.5 -31.5 83.5h24q4 -35 25.5 -59.5t63.5 -24.5q77 0 89 84h23q-3 -52 -31 -83.5t-81 -31.5t-81.5 31.5z" />
    <glyph glyph-name="ibreve" unicode="&#x12d;" horiz-adv-x="185" 
d="M0 0zM78 490h29v-490h-29v490zM11.5 613.5q-28.5 31.5 -31.5 83.5h24q4 -35 25.5 -59.5t63.5 -24.5q77 0 89 84h23q-3 -52 -31 -83.5t-81 -31.5t-81.5 31.5z" />
    <glyph glyph-name="Iogonek" unicode="&#x12e;" horiz-adv-x="218" 
d="M21 -176.5q-23 21.5 -23 60.5q0 47 30 83t66 45v672h30v-684h-1q-30 0 -58 -28q-19 -19 -28.5 -41t-9.5 -43q0 -30 17.5 -45.5t50.5 -15.5q29 0 56 5v-20q-20 -5 -33.5 -7.5t-32.5 -2.5q-41 0 -64 21.5z" />
    <glyph glyph-name="iogonek" unicode="&#x12f;" horiz-adv-x="186" 
d="M74.5 601q-5.5 5 -5.5 18v4q0 13 5.5 18t17.5 5h2q12 0 17.5 -5t5.5 -18v-4q0 -13 -5.5 -18t-17.5 -5h-2q-12 0 -17.5 5zM12 -176q-23 22 -23 60q0 43 24.5 74t64.5 49v483h29v-490q-36 -15 -62.5 -42.5t-26.5 -69.5q0 -30 16.5 -45.5t46.5 -15.5q17 0 26 1v-22
q-16 -4 -36 -4q-36 0 -59 22z" />
    <glyph glyph-name="Idotaccent" unicode="&#x130;" horiz-adv-x="218" 
d="M78 0zM94 684h30v-684h-30v684zM78 818v8q0 28 28 28h6q28 0 28 -28v-8q0 -28 -28 -28h-6q-28 0 -28 28z" />
    <glyph glyph-name="dotlessi" unicode="&#x131;" horiz-adv-x="185" 
d="M78 490h29v-490h-29v490z" />
    <glyph glyph-name="IJ" unicode="&#x132;" horiz-adv-x="549" 
d="M94 0zM94 684h30v-684h-30v684zM262 -10l-4 28q12 -3 48 -3q59 0 85.5 16t33 44t6.5 83v526h30v-526q0 -61 -7.5 -94.5t-40 -55.5t-102.5 -22q-31 0 -49 4z" />
    <glyph glyph-name="ij" unicode="&#x133;" horiz-adv-x="375" 
d="M69 0zM74.5 601q-5.5 5 -5.5 18v4q0 13 5.5 18t17.5 5h2q12 0 17.5 -5t5.5 -18v-4q0 -13 -5.5 -18t-17.5 -5h-2q-12 0 -17.5 5zM78 490h29v-490h-29v490zM263.5 601q-5.5 5 -5.5 18v4q0 13 5.5 18t17.5 5h2q12 0 17.5 -5t5.5 -18v-4q0 -13 -5.5 -18t-17.5 -5h-2
q-12 0 -17.5 5zM132 -212q37 -1 64 8.5t43 23.5q15 13 21.5 36.5t6.5 67.5v566h29v-566q0 -50 -7.5 -77t-25.5 -45q-19 -19 -49 -29.5t-77 -10.5z" />
    <glyph glyph-name="Jcircumflex" unicode="&#x134;" horiz-adv-x="331" 
d="M40 0zM44 -10l-4 28q12 -3 48 -3q59 0 85.5 16t33 44t6.5 83v526h30v-526q0 -61 -7.5 -94.5t-40 -55.5t-102.5 -22q-31 0 -49 4zM90 745l118 126h39l118 -126l-15 -16l-122 115l-122 -115z" />
    <glyph glyph-name="jcircumflex" unicode="&#x135;" horiz-adv-x="189" 
d="M0 0zM-54 -212q37 -1 64 8.5t43 23.5q15 13 21.5 36.5t6.5 67.5v566h29v-566q0 -50 -7.5 -77t-25.5 -45q-19 -19 -49 -29.5t-77 -10.5zM-43 599l118 126h39l118 -126l-15 -16l-122 115l-122 -115z" />
    <glyph glyph-name="Kcommaaccent" unicode="&#x136;" horiz-adv-x="537" 
d="M94 0zM94 684h30v-409l325 409h35l-225 -284l241 -400h-34l-226 378l-116 -145v-233h-30v684zM264 -118q-20 4 -20 25v2q0 9 6.5 15t15.5 6h2q13 0 19 -7.5t6 -26.5q0 -58 -14 -95h-15v81z" />
    <glyph glyph-name="kcommaaccent" unicode="&#x137;" horiz-adv-x="463" 
d="M78 0zM78 715h32v-513l269 288h40l-170 -182l188 -308h-36l-173 287l-118 -126v-161h-32v715zM227 -118q-20 4 -20 25v2q0 9 6.5 15t15.5 6h2q13 0 19 -7.5t6 -26.5q0 -58 -14 -95h-15v81z" />
    <glyph glyph-name="kgreenlandic" unicode="&#x138;" horiz-adv-x="463" 
d="M78 490h32v-288l269 288h40l-170 -182l188 -308h-36l-173 287l-118 -126v-161h-32v490z" />
    <glyph glyph-name="Lacute" unicode="&#x139;" horiz-adv-x="462" 
d="M34 0zM94 684h30v-657h294v-27h-324v684zM34 758l162 149l28 -33l-177 -132z" />
    <glyph glyph-name="lacute" unicode="&#x13a;" horiz-adv-x="185" 
d="M17 0zM78 715h29v-715h-29v715zM17 789l162 149l28 -33l-177 -132z" />
    <glyph glyph-name="Lcommaaccent" unicode="&#x13b;" horiz-adv-x="462" 
d="M94 0zM94 684h30v-657h294v-27h-324v684zM265 -118q-20 4 -20 25v2q0 9 6.5 15t15.5 6h2q13 0 19 -7.5t6 -26.5q0 -58 -14 -95h-15v81z" />
    <glyph glyph-name="lcommaaccent" unicode="&#x13c;" horiz-adv-x="185" 
d="M68 0zM78 715h29v-715h-29v715zM88 -118q-20 4 -20 25v2q0 9 6.5 15t15.5 6h2q13 0 19 -7.5t6 -26.5q0 -58 -14 -95h-15v81z" />
    <glyph glyph-name="Lcaron" unicode="&#x13d;" horiz-adv-x="462" 
d="M94 0zM94 684h30v-657h294v-27h-324v684zM222 649q-20 4 -20 25v2q0 9 6.5 15t15.5 6h2q13 0 19 -7.5t6 -26.5q0 -58 -14 -95h-15v81z" />
    <glyph glyph-name="lcaron" unicode="&#x13e;" horiz-adv-x="181" 
d="M78 0zM78 715h29v-715h-29v715zM183 649q-20 4 -20 25v2q0 9 6.5 15t15.5 6h2q13 0 19 -7.5t6 -26.5q0 -58 -14 -95h-15v81z" />
    <glyph glyph-name="Ldot" unicode="&#x13f;" horiz-adv-x="462" 
d="M94 0zM94 684h30v-657h294v-27h-324v684zM289 369v4q0 13 7 20t20 7h2q13 0 20 -7t7 -20v-4q0 -26 -27 -26h-2q-27 0 -27 26z" />
    <glyph glyph-name="ldot" unicode="&#x140;" horiz-adv-x="185" 
d="M78 0zM78 715h29v-715h-29v715zM200 336v8q0 28 28 28h6q28 0 28 -28v-8q0 -28 -28 -28h-6q-28 0 -28 28z" />
    <glyph glyph-name="Lslash" unicode="&#x141;" horiz-adv-x="462" 
d="M92 272l-82 -53l-14 23l96 61v381h30v-365l108 69l14 -23l-122 -77v-261h294v-27h-324v272z" />
    <glyph glyph-name="lslash" unicode="&#x142;" horiz-adv-x="278" 
d="M119 341l-82 -52l-14 22l96 60v344h29v-328l113 73l14 -22l-127 -81v-357h-29v341z" />
    <glyph glyph-name="Nacute" unicode="&#x143;" horiz-adv-x="651" 
d="M94 0zM94 684h22l413 -624v624h28v-684h-23l-412 624v-624h-28v684zM251 758l162 149l28 -33l-177 -132z" />
    <glyph glyph-name="nacute" unicode="&#x144;" horiz-adv-x="516" 
d="M78 0zM78 490h22l4 -38q87 52 176 52q79 0 121 -39q23 -20 31.5 -49t8.5 -70v-346h-29v327q0 45 -7.5 71.5t-24.5 43.5q-15 15 -43.5 24.5t-64.5 9.5q-74 0 -165 -49v-427h-29v490zM163 590l162 149l28 -33l-177 -132z" />
    <glyph glyph-name="Ncommaaccent" unicode="&#x145;" horiz-adv-x="651" 
d="M94 0zM94 684h22l413 -624v624h28v-684h-23l-412 624v-624h-28v684zM311 -118q-20 4 -20 25v2q0 9 6.5 15t15.5 6h2q13 0 19 -7.5t6 -26.5q0 -58 -14 -95h-15v81z" />
    <glyph glyph-name="ncommaaccent" unicode="&#x146;" horiz-adv-x="516" 
d="M78 0zM78 490h22l4 -38q87 52 176 52q79 0 121 -39q23 -20 31.5 -49t8.5 -70v-346h-29v327q0 45 -7.5 71.5t-24.5 43.5q-15 15 -43.5 24.5t-64.5 9.5q-74 0 -165 -49v-427h-29v490zM253 -118q-20 4 -20 25v2q0 9 6.5 15t15.5 6h2q13 0 19 -7.5t6 -26.5q0 -58 -14 -95h-15
v81z" />
    <glyph glyph-name="Ncaron" unicode="&#x147;" horiz-adv-x="651" 
d="M94 0zM94 684h22l413 -624v624h28v-684h-23l-412 624v-624h-28v684zM188 855l16 16l122 -115l122 115l15 -16l-118 -126h-39z" />
    <glyph glyph-name="ncaron" unicode="&#x148;" horiz-adv-x="516" 
d="M78 0zM78 490h22l4 -38q87 52 176 52q79 0 121 -39q23 -20 31.5 -49t8.5 -70v-346h-29v327q0 45 -7.5 71.5t-24.5 43.5q-15 15 -43.5 24.5t-64.5 9.5q-74 0 -165 -49v-427h-29v490zM120 708l16 16l122 -115l122 115l15 -16l-118 -126h-39z" />
    <glyph glyph-name="napostrophe" unicode="&#x149;" horiz-adv-x="516" 
d="M0 0zM78 490h22l4 -38q87 52 176 52q79 0 121 -39q23 -20 31.5 -49t8.5 -70v-346h-29v327q0 45 -7.5 71.5t-24.5 43.5q-15 15 -43.5 24.5t-64.5 9.5q-74 0 -165 -49v-427h-29v490zM-4 640q-27 3 -27 26v4q0 13 7 20t20 7h2q14 0 20.5 -10t6.5 -36q0 -47 -14 -107h-15v96z
" />
    <glyph glyph-name="Eng" unicode="&#x14a;" horiz-adv-x="651" 
d="M358 -235v26q12 -3 46 -3q71 0 100 26q16 14 20.5 42t4.5 93v59l-407 616v-624h-28v684h22l413 -624v624h28v-727q0 -59 -2 -87t-8.5 -44.5t-21.5 -30.5q-36 -34 -118 -34q-31 0 -49 4z" />
    <glyph glyph-name="eng" unicode="&#x14b;" horiz-adv-x="516" 
d="M277 -212q37 -1 64 8.5t43 23.5q15 13 21.5 36.5t6.5 67.5v403q0 45 -7.5 71.5t-24.5 43.5q-15 15 -43.5 24.5t-64.5 9.5q-74 0 -165 -49v-427h-29v490h22l4 -38q87 52 176 52q79 0 121 -39q23 -20 31.5 -49t8.5 -70v-422q0 -50 -7.5 -77t-25.5 -45q-19 -19 -49 -29.5
t-77 -10.5z" />
    <glyph glyph-name="Omacron" unicode="&#x14c;" horiz-adv-x="619" 
d="M64 0zM64 341q0 356 246 356q245 0 245 -356q0 -355 -245 -355q-246 0 -246 355zM473 99q50 82 50 242q0 161 -50 243.5t-163 82.5t-163.5 -82.5t-50.5 -243.5q0 -160 50.5 -242t163.5 -82t163 82zM198 842h223v-27h-223v27z" />
    <glyph glyph-name="omacron" unicode="&#x14d;" horiz-adv-x="509" 
d="M56 0zM104 51.5q-48 65.5 -48 193.5q0 129 48 194t151 65q102 0 150 -65.5t48 -193.5t-48 -193.5t-150 -65.5q-103 0 -151 65.5zM384.5 72.5q38.5 57.5 38.5 172.5t-39 173t-129 58q-91 0 -130 -58t-39 -173t39 -172.5t130 -57.5t129.5 57.5zM143 653h223v-27h-223v27z
" />
    <glyph glyph-name="Obreve" unicode="&#x14e;" horiz-adv-x="619" 
d="M64 0zM64 341q0 356 246 356q245 0 245 -356q0 -355 -245 -355q-246 0 -246 355zM473 99q50 82 50 242q0 161 -50 243.5t-163 82.5t-163.5 -82.5t-50.5 -243.5q0 -160 50.5 -242t163.5 -82t163 82zM228.5 779.5q-28.5 31.5 -31.5 83.5h24q4 -35 25.5 -59.5t63.5 -24.5
q77 0 89 84h23q-3 -52 -31 -83.5t-81 -31.5t-81.5 31.5z" />
    <glyph glyph-name="obreve" unicode="&#x14f;" horiz-adv-x="509" 
d="M56 0zM104 51.5q-48 65.5 -48 193.5q0 129 48 194t151 65q102 0 150 -65.5t48 -193.5t-48 -193.5t-150 -65.5q-103 0 -151 65.5zM384.5 72.5q38.5 57.5 38.5 172.5t-39 173t-129 58q-91 0 -130 -58t-39 -173t39 -172.5t130 -57.5t129.5 57.5zM173.5 613.5
q-28.5 31.5 -31.5 83.5h24q4 -35 25.5 -59.5t63.5 -24.5q77 0 89 84h23q-3 -52 -31 -83.5t-81 -31.5t-81.5 31.5z" />
    <glyph glyph-name="Ohungarumlaut" unicode="&#x150;" horiz-adv-x="619" 
d="M64 0zM64 341q0 356 246 356q245 0 245 -356q0 -355 -245 -355q-246 0 -246 355zM473 99q50 82 50 242q0 161 -50 243.5t-163 82.5t-163.5 -82.5t-50.5 -243.5q0 -160 50.5 -242t163.5 -82t163 82zM163 773l140 180l37 -33l-159 -164zM343 773l140 180l37 -33l-159 -164z
" />
    <glyph glyph-name="ohungarumlaut" unicode="&#x151;" horiz-adv-x="509" 
d="M56 0zM104 51.5q-48 65.5 -48 193.5q0 129 48 194t151 65q102 0 150 -65.5t48 -193.5t-48 -193.5t-150 -65.5q-103 0 -151 65.5zM384.5 72.5q38.5 57.5 38.5 172.5t-39 173t-129 58q-91 0 -130 -58t-39 -173t39 -172.5t130 -57.5t129.5 57.5zM106 604l140 180l37 -33
l-159 -164zM286 604l140 180l37 -33l-159 -164z" />
    <glyph glyph-name="OE" unicode="&#x152;" horiz-adv-x="839" 
d="M232.5 16q-54.5 16 -94.5 65q-33 42 -53.5 110.5t-20.5 150.5q0 89 20.5 158t55.5 109q39 46 92 60.5t146 14.5h393l-6 -27h-291v-296h243v-27h-243v-306h307v-28h-395q-99 0 -153.5 16zM444 28v629h-77q-77 0 -121.5 -14.5t-76.5 -50.5q-36 -39 -54.5 -103t-18.5 -147
q0 -167 68 -244q33 -39 82 -54.5t127 -15.5h71z" />
    <glyph glyph-name="oe" unicode="&#x153;" horiz-adv-x="850" 
d="M104 51.5q-48 65.5 -48 193.5q0 129 48 194t151 65q79 0 122.5 -37t61.5 -102q13 55 56.5 97t115.5 42q93 0 137.5 -62t44.5 -191v-12q0 -6 -2.5 -8.5t-9.5 -2.5h-328q2 -106 45.5 -159.5t142.5 -53.5q32 0 66 4.5t59 11.5l4 -27q-21 -7 -59 -12.5t-71 -5.5
q-85 0 -135 37t-66 100q-38 -137 -184 -137q-103 0 -151 65.5zM384.5 72.5q38.5 57.5 38.5 172.5t-39 173t-129 58q-91 0 -130 -58t-39 -173t39 -172.5t130 -57.5t129.5 57.5zM764 256q0 115 -38 167.5t-115 52.5t-117 -59.5t-41 -160.5h311z" />
    <glyph glyph-name="Racute" unicode="&#x154;" horiz-adv-x="554" 
d="M94 0zM94 684h183q62 0 100.5 -13.5t62.5 -41.5q46 -53 46 -146q0 -73 -31 -127t-103 -71l144 -285h-33l-139 281q-16 -2 -44 -2h-156v-279h-30v684zM285 306q38 0 66 7t49 25q25 22 39.5 58.5t14.5 84.5q0 41 -10.5 74.5t-28.5 54.5q-39 47 -136 47h-155v-351h161z
M202 758l162 149l28 -33l-177 -132z" />
    <glyph glyph-name="racute" unicode="&#x155;" horiz-adv-x="291" 
d="M78 0zM78 490h22l4 -41q30 25 69.5 40t82.5 15q11 0 15 -1v-30q-9 1 -23 1q-75 0 -141 -50v-424h-29v490zM91 590l162 149l28 -33l-177 -132z" />
    <glyph glyph-name="Rcommaaccent" unicode="&#x156;" horiz-adv-x="554" 
d="M94 0zM94 684h183q62 0 100.5 -13.5t62.5 -41.5q46 -53 46 -146q0 -73 -31 -127t-103 -71l144 -285h-33l-139 281q-16 -2 -44 -2h-156v-279h-30v684zM285 306q38 0 66 7t49 25q25 22 39.5 58.5t14.5 84.5q0 41 -10.5 74.5t-28.5 54.5q-39 47 -136 47h-155v-351h161z
M272 -118q-20 4 -20 25v2q0 9 6.5 15t15.5 6h2q13 0 19 -7.5t6 -26.5q0 -58 -14 -95h-15v81z" />
    <glyph glyph-name="rcommaaccent" unicode="&#x157;" horiz-adv-x="291" 
d="M68 0zM78 490h22l4 -41q30 25 69.5 40t82.5 15q11 0 15 -1v-30q-9 1 -23 1q-75 0 -141 -50v-424h-29v490zM88 -118q-20 4 -20 25v2q0 9 6.5 15t15.5 6h2q13 0 19 -7.5t6 -26.5q0 -58 -14 -95h-15v81z" />
    <glyph glyph-name="Rcaron" unicode="&#x158;" horiz-adv-x="554" 
d="M94 0zM94 684h183q62 0 100.5 -13.5t62.5 -41.5q46 -53 46 -146q0 -73 -31 -127t-103 -71l144 -285h-33l-139 281q-16 -2 -44 -2h-156v-279h-30v684zM285 306q38 0 66 7t49 25q25 22 39.5 58.5t14.5 84.5q0 41 -10.5 74.5t-28.5 54.5q-39 47 -136 47h-155v-351h161z
M139 855l16 16l122 -115l122 115l15 -16l-118 -126h-39z" />
    <glyph glyph-name="rcaron" unicode="&#x159;" horiz-adv-x="291" 
d="M48 0zM78 490h22l4 -41q30 25 69.5 40t82.5 15q11 0 15 -1v-30q-9 1 -23 1q-75 0 -141 -50v-424h-29v490zM48 708l16 16l122 -115l122 115l15 -16l-118 -126h-39z" />
    <glyph glyph-name="Sacute" unicode="&#x15a;" horiz-adv-x="510" 
d="M60 0zM133 -5.5q-46 8.5 -73 18.5l7 29q79 -25 160 -25q91 0 137 31q22 15 37.5 43t15.5 71q0 51 -23 83.5t-56 51t-90 41.5q-59 23 -94 43t-59.5 56.5t-24.5 92.5q0 79 49 122q51 45 149 45q70 0 145 -22l-7 -28q-69 20 -132 20q-83 0 -128.5 -32t-45.5 -101
q0 -48 22 -79t54.5 -49t87.5 -40q60 -24 96.5 -45t62 -59.5t25.5 -98.5q0 -90 -58 -133.5t-162 -43.5q-49 0 -95 8.5zM180 758l162 149l28 -33l-177 -132z" />
    <glyph glyph-name="sacute" unicode="&#x15b;" horiz-adv-x="386" 
d="M46 0zM112 -9q-35 5 -55 11l3 26q53 -14 116 -14q73 0 110.5 26.5t37.5 76.5q0 37 -18 59.5t-44.5 34.5t-71.5 26q-47 15 -76 28t-48.5 39t-19.5 68q0 68 46.5 100t122.5 32q29 0 60 -5t46 -9l-3 -27q-57 13 -104 13q-138 0 -138 -104q0 -32 16.5 -52t41.5 -31t68 -25
q50 -16 80 -30.5t51 -42.5t21 -74q0 -60 -43 -95.5t-132 -35.5q-32 0 -67 5zM108 590l162 149l28 -33l-177 -132z" />
    <glyph glyph-name="Scircumflex" unicode="&#x15c;" horiz-adv-x="510" 
d="M60 0zM133 -5.5q-46 8.5 -73 18.5l7 29q79 -25 160 -25q91 0 137 31q22 15 37.5 43t15.5 71q0 51 -23 83.5t-56 51t-90 41.5q-59 23 -94 43t-59.5 56.5t-24.5 92.5q0 79 49 122q51 45 149 45q70 0 145 -22l-7 -28q-69 20 -132 20q-83 0 -128.5 -32t-45.5 -101
q0 -48 22 -79t54.5 -49t87.5 -40q60 -24 96.5 -45t62 -59.5t25.5 -98.5q0 -90 -58 -133.5t-162 -43.5q-49 0 -95 8.5zM117 745l118 126h39l118 -126l-15 -16l-122 115l-122 -115z" />
    <glyph glyph-name="scircumflex" unicode="&#x15d;" horiz-adv-x="386" 
d="M46 0zM112 -9q-35 5 -55 11l3 26q53 -14 116 -14q73 0 110.5 26.5t37.5 76.5q0 37 -18 59.5t-44.5 34.5t-71.5 26q-47 15 -76 28t-48.5 39t-19.5 68q0 68 46.5 100t122.5 32q29 0 60 -5t46 -9l-3 -27q-57 13 -104 13q-138 0 -138 -104q0 -32 16.5 -52t41.5 -31t68 -25
q50 -16 80 -30.5t51 -42.5t21 -74q0 -60 -43 -95.5t-132 -35.5q-32 0 -67 5zM65 599l118 126h39l118 -126l-15 -16l-122 115l-122 -115z" />
    <glyph glyph-name="Scedilla" unicode="&#x15e;" horiz-adv-x="510" 
d="M393.5 31.5q-54.5 -43.5 -154.5 -45.5q-6 -14 -6 -23q0 -17 11.5 -24t36.5 -14q29 -7 45.5 -18.5t16.5 -40.5q0 -25 -19 -40.5t-57 -15.5q-31 0 -61 8v21q36 -6 57 -6q54 0 54 32q0 17 -13 25t-39 15q-28 8 -41.5 16.5t-13.5 27.5q0 18 12 37q-49 1 -93 9t-69 18l7 29
q79 -25 160 -25q91 0 137 31q22 15 37.5 43t15.5 71q0 51 -23 83.5t-56 51t-90 41.5q-59 23 -94 43t-59.5 56.5t-24.5 92.5q0 79 49 122q51 45 149 45q70 0 145 -22l-7 -28q-69 20 -132 20q-83 0 -128.5 -32t-45.5 -101q0 -48 22 -79t54.5 -49t87.5 -40q60 -24 96.5 -45
t62 -59.5t25.5 -98.5q0 -88 -54.5 -131.5z" />
    <glyph glyph-name="scedilla" unicode="&#x15f;" horiz-adv-x="386" 
d="M313 22.5q-41 -35.5 -126 -36.5q-6 -14 -6 -23q0 -17 11.5 -24t36.5 -14q29 -7 45.5 -18.5t16.5 -40.5q0 -25 -19 -40.5t-57 -15.5q-31 0 -61 8v21q36 -6 57 -6q54 0 54 32q0 17 -13 25t-39 15q-28 8 -41.5 16.5t-13.5 27.5q0 20 12 37q-30 1 -62 5.5t-51 10.5l3 26
q53 -14 116 -14q73 0 110.5 26.5t37.5 76.5q0 37 -18 59.5t-44.5 34.5t-71.5 26q-47 15 -76 28t-48.5 39t-19.5 68q0 68 46.5 100t122.5 32q29 0 60 -5t46 -9l-3 -27q-57 13 -104 13q-138 0 -138 -104q0 -32 16.5 -52t41.5 -31t68 -25q50 -16 80 -30.5t51 -42.5t21 -74
q0 -59 -41 -94.5z" />
    <glyph glyph-name="Scaron" unicode="&#x160;" horiz-adv-x="510" 
d="M60 0zM133 -5.5q-46 8.5 -73 18.5l7 29q79 -25 160 -25q91 0 137 31q22 15 37.5 43t15.5 71q0 51 -23 83.5t-56 51t-90 41.5q-59 23 -94 43t-59.5 56.5t-24.5 92.5q0 79 49 122q51 45 149 45q70 0 145 -22l-7 -28q-69 20 -132 20q-83 0 -128.5 -32t-45.5 -101
q0 -48 22 -79t54.5 -49t87.5 -40q60 -24 96.5 -45t62 -59.5t25.5 -98.5q0 -90 -58 -133.5t-162 -43.5q-49 0 -95 8.5zM117 855l16 16l122 -115l122 115l15 -16l-118 -126h-39z" />
    <glyph glyph-name="scaron" unicode="&#x161;" horiz-adv-x="386" 
d="M46 0zM112 -9q-35 5 -55 11l3 26q53 -14 116 -14q73 0 110.5 26.5t37.5 76.5q0 37 -18 59.5t-44.5 34.5t-71.5 26q-47 15 -76 28t-48.5 39t-19.5 68q0 68 46.5 100t122.5 32q29 0 60 -5t46 -9l-3 -27q-57 13 -104 13q-138 0 -138 -104q0 -32 16.5 -52t41.5 -31t68 -25
q50 -16 80 -30.5t51 -42.5t21 -74q0 -60 -43 -95.5t-132 -35.5q-32 0 -67 5zM65 708l16 16l122 -115l122 115l15 -16l-118 -126h-39z" />
    <glyph glyph-name="uni0162" unicode="&#x162;" horiz-adv-x="531" 
d="M30 0zM252 657h-222v27h476l-6 -27h-218v-657h-30v657zM261 -118q-20 4 -20 25v2q0 9 6.5 15t15.5 6h2q13 0 19 -7.5t6 -26.5q0 -58 -14 -95h-15v81z" />
    <glyph glyph-name="uni0163" unicode="&#x163;" horiz-adv-x="319" 
d="M18 0zM134 16q-15 15 -21.5 38t-6.5 60v350h-88v20l88 6v111q15 7 29 8v-119h133v-26h-133v-326q0 -37 4.5 -61.5t18.5 -39.5q22 -23 67 -23q39 0 75 9l3 -24q-36 -13 -79 -13q-60 0 -90 30zM206 -118q-20 4 -20 25v2q0 9 6.5 15t15.5 6h2q13 0 19 -7.5t6 -26.5
q0 -58 -14 -95h-15v81z" />
    <glyph glyph-name="Tcaron" unicode="&#x164;" horiz-adv-x="531" 
d="M30 0zM252 657h-222v27h476l-6 -27h-218v-657h-30v657zM129 855l16 16l122 -115l122 115l15 -16l-118 -126h-39z" />
    <glyph glyph-name="tcaron" unicode="&#x165;" horiz-adv-x="319" 
d="M18 0zM134 16q-15 15 -21.5 38t-6.5 60v350h-88v20l88 6v111q15 7 29 8v-119h133v-26h-133v-326q0 -37 4.5 -61.5t18.5 -39.5q22 -23 67 -23q39 0 75 9l3 -24q-36 -13 -79 -13q-60 0 -90 30zM213 648q-20 4 -20 25v2q0 9 6.5 15t15.5 6h2q13 0 19 -7.5t6 -26.5
q0 -58 -14 -95h-15v81z" />
    <glyph glyph-name="Tbar" unicode="&#x166;" horiz-adv-x="531" 
d="M252 332h-138v26h138v299h-222v27h476l-6 -27h-218v-299h138v-26h-138v-332h-30v332z" />
    <glyph glyph-name="tbar" unicode="&#x167;" horiz-adv-x="319" 
d="M303 -1q-36 -13 -79 -13q-60 0 -90 30q-15 15 -21.5 38t-6.5 60v129h-76v20l76 6v195h-88v20l88 6v111q15 7 29 8v-119h133v-26h-133v-195h125v-26h-125v-105q0 -37 4.5 -61.5t18.5 -39.5q22 -23 67 -23q39 0 75 9z" />
    <glyph glyph-name="Utilde" unicode="&#x168;" horiz-adv-x="622" 
d="M88 0zM134 49q-25 28 -35.5 69.5t-10.5 99.5v466h30v-465q0 -56 10 -93t32 -61q45 -49 151 -49q97 0 145 44q26 24 38 60t12 94v470h28v-477q0 -60 -13 -99t-43 -68q-26 -26 -65.5 -40t-99.5 -14q-125 0 -179 63zM343 776.5q-13 5.5 -35 17.5q-20 10 -31.5 15t-24.5 5
q-27 0 -44 -40l-23 6q14 68 66 68q17 0 32 -6t34 -18q19 -10 30 -15t24 -5q26 0 44 40l22 -6q-14 -67 -65 -67q-16 0 -29 5.5z" />
    <glyph glyph-name="utilde" unicode="&#x169;" horiz-adv-x="514" 
d="M75 0zM115 25q-23 20 -31.5 49t-8.5 70v346h29v-327q0 -45 7.5 -71.5t24.5 -43.5q16 -16 43.5 -25t63.5 -9q73 0 164 49v427h29v-490h-22l-4 38q-87 -52 -175 -52q-78 0 -120 39zM289 614.5q-13 5.5 -35 17.5q-20 10 -31.5 15t-24.5 5q-27 0 -44 -40l-23 6q14 68 66 68
q17 0 32 -6t34 -18q19 -10 30 -15t24 -5q26 0 44 40l22 -6q-14 -67 -65 -67q-16 0 -29 5.5z" />
    <glyph glyph-name="Umacron" unicode="&#x16a;" horiz-adv-x="622" 
d="M88 0zM134 49q-25 28 -35.5 69.5t-10.5 99.5v466h30v-465q0 -56 10 -93t32 -61q45 -49 151 -49q97 0 145 44q26 24 38 60t12 94v470h28v-477q0 -60 -13 -99t-43 -68q-26 -26 -65.5 -40t-99.5 -14q-125 0 -179 63zM199 842h223v-27h-223v27z" />
    <glyph glyph-name="umacron" unicode="&#x16b;" horiz-adv-x="514" 
d="M75 0zM115 25q-23 20 -31.5 49t-8.5 70v346h29v-327q0 -45 7.5 -71.5t24.5 -43.5q16 -16 43.5 -25t63.5 -9q73 0 164 49v427h29v-490h-22l-4 38q-87 -52 -175 -52q-78 0 -120 39zM145 653h223v-27h-223v27z" />
    <glyph glyph-name="Ubreve" unicode="&#x16c;" horiz-adv-x="622" 
d="M88 0zM134 49q-25 28 -35.5 69.5t-10.5 99.5v466h30v-465q0 -56 10 -93t32 -61q45 -49 151 -49q97 0 145 44q26 24 38 60t12 94v470h28v-477q0 -60 -13 -99t-43 -68q-26 -26 -65.5 -40t-99.5 -14q-125 0 -179 63zM229.5 779.5q-28.5 31.5 -31.5 83.5h24q4 -35 25.5 -59.5
t63.5 -24.5q77 0 89 84h23q-3 -52 -31 -83.5t-81 -31.5t-81.5 31.5z" />
    <glyph glyph-name="ubreve" unicode="&#x16d;" horiz-adv-x="514" 
d="M75 0zM115 25q-23 20 -31.5 49t-8.5 70v346h29v-327q0 -45 7.5 -71.5t24.5 -43.5q16 -16 43.5 -25t63.5 -9q73 0 164 49v427h29v-490h-22l-4 38q-87 -52 -175 -52q-78 0 -120 39zM175.5 613.5q-28.5 31.5 -31.5 83.5h24q4 -35 25.5 -59.5t63.5 -24.5q77 0 89 84h23
q-3 -52 -31 -83.5t-81 -31.5t-81.5 31.5z" />
    <glyph glyph-name="Uring" unicode="&#x16e;" horiz-adv-x="622" 
d="M88 0zM134 49q-25 28 -35.5 69.5t-10.5 99.5v466h30v-465q0 -56 10 -93t32 -61q45 -49 151 -49q97 0 145 44q26 24 38 60t12 94v470h28v-477q0 -60 -13 -99t-43 -68q-26 -26 -65.5 -40t-99.5 -14q-125 0 -179 63zM388.5 930q26.5 -28 26.5 -73t-27 -73t-76 -28h-4
q-49 0 -75 28t-26 73t26.5 73t75.5 28h4q49 0 75.5 -28zM385 858q0 36 -18 54.5t-54 18.5h-5q-34 0 -52.5 -19t-18.5 -54v-3q0 -35 18.5 -54t51.5 -19h5q36 0 54.5 19t18.5 54v3zM207 858v-1v-1v2zM415 856v1v1v-2z" />
    <glyph glyph-name="uring" unicode="&#x16f;" horiz-adv-x="514" 
d="M75 0zM115 25q-23 20 -31.5 49t-8.5 70v346h29v-327q0 -45 7.5 -71.5t24.5 -43.5q16 -16 43.5 -25t63.5 -9q73 0 164 49v427h29v-490h-22l-4 38q-87 -52 -175 -52q-78 0 -120 39zM334.5 762q26.5 -28 26.5 -73t-27 -73t-76 -28h-4q-49 0 -75 28t-26 73t26.5 73t75.5 28h4
q49 0 75.5 -28zM331 690q0 36 -18 54.5t-54 18.5h-5q-34 0 -52.5 -19t-18.5 -54v-3q0 -35 18.5 -54t51.5 -19h5q36 0 54.5 19t18.5 54v3zM153 690v-1v-1v2zM361 688v1v1v-2z" />
    <glyph glyph-name="Uhungarumlaut" unicode="&#x170;" horiz-adv-x="622" 
d="M88 0zM134 49q-25 28 -35.5 69.5t-10.5 99.5v466h30v-465q0 -56 10 -93t32 -61q45 -49 151 -49q97 0 145 44q26 24 38 60t12 94v470h28v-477q0 -60 -13 -99t-43 -68q-26 -26 -65.5 -40t-99.5 -14q-125 0 -179 63zM164 773l140 180l37 -33l-159 -164zM344 773l140 180
l37 -33l-159 -164z" />
    <glyph glyph-name="uhungarumlaut" unicode="&#x171;" horiz-adv-x="514" 
d="M75 0zM115 25q-23 20 -31.5 49t-8.5 70v346h29v-327q0 -45 7.5 -71.5t24.5 -43.5q16 -16 43.5 -25t63.5 -9q73 0 164 49v427h29v-490h-22l-4 38q-87 -52 -175 -52q-78 0 -120 39zM108 604l140 180l37 -33l-159 -164zM288 604l140 180l37 -33l-159 -164z" />
    <glyph glyph-name="Uogonek" unicode="&#x172;" horiz-adv-x="622" 
d="M278 -176.5q-23 21.5 -23 60.5q0 58 48 102q-116 3 -169 63q-25 28 -35.5 69.5t-10.5 99.5v466h30v-465q0 -56 10 -93t32 -61q45 -49 151 -49q97 0 145 44q26 24 38 60t12 94v470h28v-477q0 -60 -13 -99t-43 -68q-50 -48 -140 -53q-27 -22 -40.5 -48.5t-13.5 -50.5
q0 -30 17.5 -45.5t50.5 -15.5q29 0 56 5v-20q-20 -5 -33.5 -7.5t-32.5 -2.5q-41 0 -64 21.5z" />
    <glyph glyph-name="uogonek" unicode="&#x173;" horiz-adv-x="514" 
d="M341 -176q-23 22 -23 60q0 83 95 125l-3 29q-87 -52 -175 -52q-78 0 -120 39q-23 20 -31.5 49t-8.5 70v346h29v-327q0 -45 7.5 -71.5t24.5 -43.5q16 -16 43.5 -25t63.5 -9q73 0 164 49v427h29v-490q-36 -15 -62.5 -42.5t-26.5 -69.5q0 -30 16.5 -45.5t46.5 -15.5
q17 0 26 1v-22q-16 -4 -36 -4q-36 0 -59 22z" />
    <glyph glyph-name="Wcircumflex" unicode="&#x174;" horiz-adv-x="823" 
d="M31 0zM31 684h31l180 -647l153 647h37l161 -647l168 647h31l-179 -684h-39l-160 642l-152 -642h-39zM276 745l118 126h39l118 -126l-15 -16l-122 115l-122 -115z" />
    <glyph glyph-name="wcircumflex" unicode="&#x175;" horiz-adv-x="649" 
d="M19 0zM19 490h32l131 -452l127 452h29l147 -452l111 452h31l-124 -490h-35l-144 445l-125 -445h-35zM187 599l118 126h39l118 -126l-15 -16l-122 115l-122 -115z" />
    <glyph glyph-name="Ycircumflex" unicode="&#x176;" horiz-adv-x="516" 
d="M28 0zM238 280l-210 404h33l193 -376l202 376h32l-220 -404v-280h-30v280zM116 745l118 126h39l118 -126l-15 -16l-122 115l-122 -115z" />
    <glyph glyph-name="ycircumflex" unicode="&#x177;" horiz-adv-x="514" 
d="M75 0zM204 -232l-7 27q30 -6 65 -6q79 0 114 29q18 15 24.5 40.5t6.5 69.5v108q-84 -50 -172 -50q-78 0 -120 39q-23 20 -31.5 49t-8.5 70v346h29v-327q0 -44 7 -71t25 -44q17 -16 44 -25t62 -9q74 0 165 49v427h29v-564q0 -46 -7.5 -77t-27.5 -50q-41 -38 -129 -38
q-45 0 -68 7zM119 599l118 126h39l118 -126l-15 -16l-122 115l-122 -115z" />
    <glyph glyph-name="Ydieresis" unicode="&#x178;" horiz-adv-x="516" 
d="M28 0zM238 280l-210 404h33l193 -376l202 376h32l-220 -404v-280h-30v280zM142 791.5q-9 8.5 -9 23.5v4q0 15 9 24t24 9h2q15 0 24 -9t9 -24v-4q0 -15 -9 -23.5t-24 -8.5h-2q-15 0 -24 8.5zM316 791.5q-9 8.5 -9 23.5v4q0 15 9 24t24 9h2q15 0 24 -9t9 -24v-4
q0 -15 -9 -23.5t-24 -8.5h-2q-15 0 -24 8.5z" />
    <glyph glyph-name="Zacute" unicode="&#x179;" horiz-adv-x="526" 
d="M58 0zM472 27v-27h-410v24l368 633h-372v27h407v-23l-368 -634h375zM178 758l162 149l28 -33l-177 -132z" />
    <glyph glyph-name="zacute" unicode="&#x17a;" horiz-adv-x="408" 
d="M48 0zM48 18l280 446h-274v26h314v-17l-280 -446h283v-27h-323v18zM109 590l162 149l28 -33l-177 -132z" />
    <glyph glyph-name="Zdotaccent" unicode="&#x17b;" horiz-adv-x="526" 
d="M58 0zM472 27v-27h-410v24l368 633h-372v27h407v-23l-368 -634h375zM222 818v8q0 28 28 28h6q28 0 28 -28v-8q0 -28 -28 -28h-6q-28 0 -28 28z" />
    <glyph glyph-name="zdotaccent" unicode="&#x17c;" horiz-adv-x="408" 
d="M48 0zM48 18l280 446h-274v26h314v-17l-280 -446h283v-27h-323v18zM173 650v8q0 28 28 28h6q28 0 28 -28v-8q0 -28 -28 -28h-6q-28 0 -28 28z" />
    <glyph glyph-name="Zcaron" unicode="&#x17d;" horiz-adv-x="526" 
d="M58 0zM472 27v-27h-410v24l368 633h-372v27h407v-23l-368 -634h375zM115 855l16 16l122 -115l122 115l15 -16l-118 -126h-39z" />
    <glyph glyph-name="zcaron" unicode="&#x17e;" horiz-adv-x="408" 
d="M48 0zM48 18l280 446h-274v26h314v-17l-280 -446h283v-27h-323v18zM66 708l16 16l122 -115l122 115l15 -16l-118 -126h-39z" />
    <glyph glyph-name="longs" unicode="&#x17f;" horiz-adv-x="251" 
d="M110 463h-88v21l88 6v98q0 43 6.5 67.5t23.5 41.5q18 17 46 26t61 9q32 0 58 -6v-28q-28 6 -55 6q-30 0 -51.5 -6t-36.5 -21q-14 -14 -18.5 -34.5t-4.5 -62.5v-580h-29v463z" />
    <glyph glyph-name="florin" unicode="&#x192;" horiz-adv-x="511" 
d="M33 -257v26q28 -5 52 -5q62 0 90 30q27 28 31 95l29 425h-120v17l122 7l17 236q6 76 35 109q35 40 110 40q26 0 56 -5v-28q-27 5 -56 5q-34 -1 -53.5 -8t-34.5 -22q-24 -26 -28 -84l-17 -242h135v-25h-138l-30 -427q-3 -40 -11.5 -66t-23.5 -43q-35 -41 -109 -41
q-34 0 -56 6z" />
    <glyph glyph-name="uni01CD" unicode="&#x1cd;" horiz-adv-x="528" 
d="M26 0zM239 684h39l224 -684h-32l-62 193h-291l-59 -193h-32zM399 220l-140 435l-133 -435h273zM121 855l16 16l122 -115l122 115l15 -16l-118 -126h-39z" />
    <glyph glyph-name="uni01CE" unicode="&#x1ce;" horiz-adv-x="472" 
d="M48 0zM92 24q-44 38 -44 114q0 62 34 97q23 23 58.5 33t91.5 10h136v52q0 82 -30 114q-31 32 -107 32q-66 0 -138 -18l-3 25q74 21 144 21q89 0 127 -41q36 -39 36 -120v-343h-22l-4 33q-32 -20 -76.5 -33.5t-88.5 -13.5q-70 0 -114 38zM300 27q40 13 68 30v194h-132
q-52 0 -82 -8.5t-47 -24.5q-29 -27 -29 -80q0 -62 36.5 -93t99.5 -31q46 0 86 13zM104 708l16 16l122 -115l122 115l15 -16l-118 -126h-39z" />
    <glyph glyph-name="Aringacute" unicode="&#x1fa;" horiz-adv-x="528" 
d="M26 0zM239 684h39l224 -684h-32l-62 193h-291l-59 -193h-32zM399 220l-140 435l-133 -435h273zM336.5 930q26.5 -28 26.5 -73t-27 -73t-76 -28h-4q-49 0 -75 28t-26 73t26.5 73t75.5 28h4q49 0 75.5 -28zM333 858q0 36 -18 54.5t-54 18.5h-5q-34 0 -52.5 -19t-18.5 -54
v-3q0 -35 18.5 -54t51.5 -19h5q36 0 54.5 19t18.5 54v3zM155 858v-1v-1v2zM363 856v1v1v-2zM184 1032l162 149l28 -33l-177 -132z" />
    <glyph glyph-name="aringacute" unicode="&#x1fb;" horiz-adv-x="472" 
d="M48 0zM92 24q-44 38 -44 114q0 62 34 97q23 23 58.5 33t91.5 10h136v52q0 82 -30 114q-31 32 -107 32q-66 0 -138 -18l-3 25q74 21 144 21q89 0 127 -41q36 -39 36 -120v-343h-22l-4 33q-32 -20 -76.5 -33.5t-88.5 -13.5q-70 0 -114 38zM300 27q40 13 68 30v194h-132
q-52 0 -82 -8.5t-47 -24.5q-29 -27 -29 -80q0 -62 36.5 -93t99.5 -31q46 0 86 13zM313.5 762q26.5 -28 26.5 -73t-27 -73t-76 -28h-4q-49 0 -75 28t-26 73t26.5 73t75.5 28h4q49 0 75.5 -28zM310 690q0 36 -18 54.5t-54 18.5h-5q-34 0 -52.5 -19t-18.5 -54v-3
q0 -35 18.5 -54t51.5 -19h5q36 0 54.5 19t18.5 54v3zM132 690v-1v-1v2zM340 688v1v1v-2zM141 890l162 149l28 -33l-177 -132z" />
    <glyph glyph-name="AEacute" unicode="&#x1fc;" horiz-adv-x="803" 
d="M10 0zM394 684h341l-6 -27h-291v-296h243v-27h-243v-306h307v-28h-337v189h-259l-107 -189h-32zM408 216v437l-244 -437h244zM477 758l162 149l28 -33l-177 -132z" />
    <glyph glyph-name="aeacute" unicode="&#x1fd;" horiz-adv-x="787" 
d="M48 0zM91.5 24.5q-43.5 38.5 -43.5 113.5q0 62 34 97q23 23 58.5 33t91.5 10h134v53q0 81 -31 114q-30 31 -107 31q-62 0 -135 -19l-5 26q74 21 144 21q89 0 127 -41q24 -25 31 -70q19 44 55 77.5t111 33.5q90 0 134 -63t44 -190v-11q0 -6 -2.5 -8.5t-9.5 -2.5h-328
q2 -108 46 -161t143 -53q31 0 65 4.5t59 11.5l4 -27q-21 -7 -59 -12.5t-71 -5.5q-116 0 -170 73q-37 -31 -93 -52t-111 -21q-72 0 -115.5 38.5zM705 256q0 113 -37.5 166.5t-111.5 53.5q-80 0 -120 -58t-42 -162h311zM310 30.5q47 15.5 87 49.5q-31 52 -31 171h-130
q-52 0 -82 -8.5t-47 -24.5q-29 -27 -29 -80q0 -62 36.5 -92.5t101.5 -30.5q47 0 94 15.5zM339 590l162 149l28 -33l-177 -132z" />
    <glyph glyph-name="Oslashacute" unicode="&#x1fe;" horiz-adv-x="619" 
d="M64 0zM170 28q-106 80 -106 313q0 356 246 356q64 0 113 -25l34 85h30l-40 -101q108 -79 108 -315q0 -355 -245 -355q-67 0 -116 26l-34 -86h-30zM412 643q-42 24 -102 24q-113 0 -163.5 -82.5t-50.5 -243.5q0 -104 20.5 -175t65.5 -108zM473 99q50 82 50 242
q0 214 -87 286l-231 -585q43 -25 105 -25q113 0 163 82zM236 758l162 149l28 -33l-177 -132z" />
    <glyph glyph-name="oslashacute" unicode="&#x1ff;" horiz-adv-x="509" 
d="M56 0zM144 14q-88 56 -88 231q0 129 48 194t151 65q49 0 85 -15l39 93h29l-44 -106q89 -55 89 -231q0 -128 -48 -193.5t-150 -65.5q-52 0 -87 16l-39 -94h-29zM330 463q-34 13 -75 13q-91 0 -130 -58t-39 -173q0 -76 16.5 -127t52.5 -76zM384.5 72.5
q38.5 57.5 38.5 172.5q0 77 -16.5 128t-53.5 76l-174 -420q33 -14 76 -14q91 0 129.5 57.5zM190 590l162 149l28 -33l-177 -132z" />
    <glyph glyph-name="Scommaaccent" unicode="&#x218;" horiz-adv-x="510" 
d="M60 0zM133 -5.5q-46 8.5 -73 18.5l7 29q79 -25 160 -25q91 0 137 31q22 15 37.5 43t15.5 71q0 51 -23 83.5t-56 51t-90 41.5q-59 23 -94 43t-59.5 56.5t-24.5 92.5q0 79 49 122q51 45 149 45q70 0 145 -22l-7 -28q-69 20 -132 20q-83 0 -128.5 -32t-45.5 -101
q0 -48 22 -79t54.5 -49t87.5 -40q60 -24 96.5 -45t62 -59.5t25.5 -98.5q0 -90 -58 -133.5t-162 -43.5q-49 0 -95 8.5zM240 -118q-20 4 -20 25v2q0 9 6.5 15t15.5 6h2q13 0 19 -7.5t6 -26.5q0 -58 -14 -95h-15v81z" />
    <glyph glyph-name="scommaaccent" unicode="&#x219;" horiz-adv-x="386" 
d="M46 0zM112 -9q-35 5 -55 11l3 26q53 -14 116 -14q73 0 110.5 26.5t37.5 76.5q0 37 -18 59.5t-44.5 34.5t-71.5 26q-47 15 -76 28t-48.5 39t-19.5 68q0 68 46.5 100t122.5 32q29 0 60 -5t46 -9l-3 -27q-57 13 -104 13q-138 0 -138 -104q0 -32 16.5 -52t41.5 -31t68 -25
q50 -16 80 -30.5t51 -42.5t21 -74q0 -60 -43 -95.5t-132 -35.5q-32 0 -67 5zM188 -118q-20 4 -20 25v2q0 9 6.5 15t15.5 6h2q13 0 19 -7.5t6 -26.5q0 -58 -14 -95h-15v81z" />
    <glyph glyph-name="uni021A" unicode="&#x21a;" horiz-adv-x="531" 
d="M30 0zM252 657h-222v27h476l-6 -27h-218v-657h-30v657zM261 -118q-20 4 -20 25v2q0 9 6.5 15t15.5 6h2q13 0 19 -7.5t6 -26.5q0 -58 -14 -95h-15v81z" />
    <glyph glyph-name="uni021B" unicode="&#x21b;" horiz-adv-x="319" 
d="M18 0zM134 16q-15 15 -21.5 38t-6.5 60v350h-88v20l88 6v111q15 7 29 8v-119h133v-26h-133v-326q0 -37 4.5 -61.5t18.5 -39.5q22 -23 67 -23q39 0 75 9l3 -24q-36 -13 -79 -13q-60 0 -90 30zM206 -118q-20 4 -20 25v2q0 9 6.5 15t15.5 6h2q13 0 19 -7.5t6 -26.5
q0 -58 -14 -95h-15v81z" />
    <glyph glyph-name="uni0237" unicode="&#x237;" horiz-adv-x="189" 
d="M-54 -212q37 -1 64 8.5t43 23.5q15 13 21.5 36.5t6.5 67.5v566h29v-566q0 -50 -7.5 -77t-25.5 -45q-19 -19 -49 -29.5t-77 -10.5z" />
    <glyph glyph-name="circumflex" unicode="&#x2c6;" horiz-adv-x="390" 
d="M57 583zM57 599l118 126h39l118 -126l-15 -16l-122 115l-122 -115z" />
    <glyph glyph-name="caron" unicode="&#x2c7;" horiz-adv-x="390" 
d="M57 582zM57 708l16 16l122 -115l122 115l15 -16l-118 -126h-39z" />
    <glyph glyph-name="breve" unicode="&#x2d8;" horiz-adv-x="390" 
d="M83 582zM114.5 613.5q-28.5 31.5 -31.5 83.5h24q4 -35 25.5 -59.5t63.5 -24.5q77 0 89 84h23q-3 -52 -31 -83.5t-81 -31.5t-81.5 31.5z" />
    <glyph glyph-name="dotaccent" unicode="&#x2d9;" horiz-adv-x="390" 
d="M164 622zM164 650v8q0 28 28 28h6q28 0 28 -28v-8q0 -28 -28 -28h-6q-28 0 -28 28z" />
    <glyph glyph-name="ring" unicode="&#x2da;" horiz-adv-x="390" 
d="M91 588zM272.5 762q26.5 -28 26.5 -73t-27 -73t-76 -28h-4q-49 0 -75 28t-26 73t26.5 73t75.5 28h4q49 0 75.5 -28zM269 690q0 36 -18 54.5t-54 18.5h-5q-34 0 -52.5 -19t-18.5 -54v-3q0 -35 18.5 -54t51.5 -19h5q36 0 54.5 19t18.5 54v3zM91 690v-1v-1v2zM299 688v1v1
v-2z" />
    <glyph glyph-name="ogonek" unicode="&#x2db;" horiz-adv-x="390" 
d="M118 0zM141 -176.5q-23 21.5 -23 60.5q0 44 27.5 79.5t67.5 53.5l33 -2q-49 -23 -74 -58t-25 -69q0 -30 17.5 -45.5t50.5 -15.5q28 0 56 5v-20q-20 -5 -33.5 -7.5t-32.5 -2.5q-41 0 -64 21.5z" />
    <glyph glyph-name="tilde" unicode="&#x2dc;" horiz-adv-x="390" 
d="M69 609zM227 614.5q-13 5.5 -35 17.5q-20 10 -31.5 15t-24.5 5q-27 0 -44 -40l-23 6q14 68 66 68q17 0 32 -6t34 -18q19 -10 30 -15t24 -5q26 0 44 40l22 -6q-14 -67 -65 -67q-16 0 -29 5.5z" />
    <glyph glyph-name="hungarumlaut" unicode="&#x2dd;" horiz-adv-x="390" 
d="M15 587zM15 604l140 180l37 -33l-159 -164zM195 604l140 180l37 -33l-159 -164z" />
    <glyph glyph-name="gravecomb" unicode="&#x300;" 
d="M-292 706l28 33l162 -149l-13 -16z" />
    <glyph glyph-name="acutecomb" unicode="&#x301;" 
d="M-291 590l162 149l28 -33l-177 -132z" />
    <glyph glyph-name="uni0302" unicode="&#x302;" 
d="M-333 599l118 126h39l118 -126l-15 -16l-122 115l-122 -115z" />
    <glyph glyph-name="tildecomb" unicode="&#x303;" 
d="M-163 614.5q-13 5.5 -35 17.5q-20 10 -31.5 15t-24.5 5q-27 0 -44 -40l-23 6q14 68 66 68q17 0 32 -6t34 -18q19 -10 30 -15t24 -5q26 0 44 40l22 -6q-14 -67 -65 -67q-16 0 -29 5.5z" />
    <glyph glyph-name="uni0304" unicode="&#x304;" 
d="M-307 653h223v-27h-223v27z" />
    <glyph glyph-name="uni0306" unicode="&#x306;" 
d="M-275.5 613.5q-28.5 31.5 -31.5 83.5h24q4 -35 25.5 -59.5t63.5 -24.5q77 0 89 84h23q-3 -52 -31 -83.5t-81 -31.5t-81.5 31.5z" />
    <glyph glyph-name="uni0307" unicode="&#x307;" 
d="M-226 650v8q0 28 28 28h6q28 0 28 -28v-8q0 -28 -28 -28h-6q-28 0 -28 28z" />
    <glyph glyph-name="uni0308" unicode="&#x308;" 
d="M-307 623.5q-9 8.5 -9 23.5v4q0 15 9 24t24 9h2q15 0 24 -9t9 -24v-4q0 -15 -9 -23.5t-24 -8.5h-2q-15 0 -24 8.5zM-133 623.5q-9 8.5 -9 23.5v4q0 15 9 24t24 9h2q15 0 24 -9t9 -24v-4q0 -15 -9 -23.5t-24 -8.5h-2q-15 0 -24 8.5z" />
    <glyph glyph-name="uni030A" unicode="&#x30a;" 
d="M-117.5 762q26.5 -28 26.5 -73t-27 -73t-76 -28h-4q-49 0 -75 28t-26 73t26.5 73t75.5 28h4q49 0 75.5 -28zM-121 690q0 36 -18 54.5t-54 18.5h-5q-34 0 -52.5 -19t-18.5 -54v-3q0 -35 18.5 -54t51.5 -19h5q36 0 54.5 19t18.5 54v3zM-299 690v-1v-1v2zM-91 688v1v1v-2z
" />
    <glyph glyph-name="uni030B" unicode="&#x30b;" 
d="M-375 604l140 180l37 -33l-159 -164zM-195 604l140 180l37 -33l-159 -164z" />
    <glyph glyph-name="uni030C" unicode="&#x30c;" 
d="M-333 708l16 16l122 -115l122 115l15 -16l-118 -126h-39z" />
    <glyph glyph-name="uni0326" unicode="&#x326;" 
d="M-203 -118q-20 4 -20 25v2q0 9 6.5 15t15.5 6h2q13 0 19 -7.5t6 -26.5q0 -58 -14 -95h-15v81z" />
    <glyph glyph-name="uni0327" unicode="&#x327;" 
d="M-263 -182v21q36 -6 57 -6q54 0 54 32q0 17 -13 25t-39 15q-28 8 -41.5 16.5t-13.5 27.5q0 26 21 49h15q-13 -20 -13 -35q0 -17 11.5 -24t36.5 -14q29 -7 45.5 -18.5t16.5 -40.5q0 -25 -19 -40.5t-57 -15.5q-31 0 -61 8z" />
    <glyph glyph-name="uni0328" unicode="&#x328;" 
d="M-248 -176.5q-23 21.5 -23 60.5q0 44 27.5 79.5t67.5 53.5l33 -2q-49 -23 -74 -58t-25 -69q0 -30 17.5 -45.5t50.5 -15.5q28 0 56 5v-20q-20 -5 -33.5 -7.5t-32.5 -2.5q-41 0 -64 21.5z" />
    <glyph glyph-name="uni0394" unicode="&#x394;" horiz-adv-x="590" 
d="M41 6q0 12 6 29l225 649h42l227 -641q8 -23 8 -33v-10h-508v6zM512 27l-220 628l-215 -628h435z" />
    <glyph glyph-name="uni03A9" unicode="&#x3a9;" horiz-adv-x="635" 
d="M88 27h159q-79 54 -129 143.5t-50 211.5q0 95 29.5 166t86 110t134.5 39q77 0 133.5 -39t86 -110t29.5 -165q0 -122 -50.5 -212t-129.5 -144h160v-27h-188v12q0 14 3.5 19.5t14.5 14.5q78 63 118 145t40 193q0 128 -54 205.5t-163 77.5q-110 0 -164 -77.5t-54 -206.5
q0 -111 40 -191.5t119 -145.5q11 -9 14 -14.5t3 -19.5v-12h-188v27z" />
    <glyph glyph-name="uni03BC" unicode="&#x3bc;" horiz-adv-x="517" 
d="M78 490h29v-327q0 -45 7.5 -71.5t24.5 -43.5q16 -16 43.5 -25t63.5 -9q73 0 164 49v427h29v-490h-22l-4 38q-87 -52 -175 -52q-44 0 -78.5 13.5t-52.5 37.5v-262h-29v715z" />
    <glyph glyph-name="pi" unicode="&#x3c0;" horiz-adv-x="597" 
d="M124 455h-90v27h529v-27h-88v-455h-29v455h-293v-455h-29v455z" />
    <glyph glyph-name="Wgrave" unicode="&#x1e80;" horiz-adv-x="823" 
d="M31 0zM31 684h31l180 -647l153 647h37l161 -647l168 647h31l-179 -684h-39l-160 642l-152 -642h-39zM318 874l28 33l162 -149l-13 -16z" />
    <glyph glyph-name="wgrave" unicode="&#x1e81;" horiz-adv-x="649" 
d="M19 0zM19 490h32l131 -452l127 452h29l147 -452l111 452h31l-124 -490h-35l-144 445l-125 -445h-35zM230 706l28 33l162 -149l-13 -16z" />
    <glyph glyph-name="Wacute" unicode="&#x1e82;" horiz-adv-x="823" 
d="M31 0zM31 684h31l180 -647l153 647h37l161 -647l168 647h31l-179 -684h-39l-160 642l-152 -642h-39zM339 758l162 149l28 -33l-177 -132z" />
    <glyph glyph-name="wacute" unicode="&#x1e83;" horiz-adv-x="649" 
d="M19 0zM19 490h32l131 -452l127 452h29l147 -452l111 452h31l-124 -490h-35l-144 445l-125 -445h-35zM230 590l162 149l28 -33l-177 -132z" />
    <glyph glyph-name="Wdieresis" unicode="&#x1e84;" horiz-adv-x="823" 
d="M31 0zM31 684h31l180 -647l153 647h37l161 -647l168 647h31l-179 -684h-39l-160 642l-152 -642h-39zM302 791.5q-9 8.5 -9 23.5v4q0 15 9 24t24 9h2q15 0 24 -9t9 -24v-4q0 -15 -9 -23.5t-24 -8.5h-2q-15 0 -24 8.5zM476 791.5q-9 8.5 -9 23.5v4q0 15 9 24t24 9h2
q15 0 24 -9t9 -24v-4q0 -15 -9 -23.5t-24 -8.5h-2q-15 0 -24 8.5z" />
    <glyph glyph-name="wdieresis" unicode="&#x1e85;" horiz-adv-x="649" 
d="M19 0zM19 490h32l131 -452l127 452h29l147 -452l111 452h31l-124 -490h-35l-144 445l-125 -445h-35zM213 623.5q-9 8.5 -9 23.5v4q0 15 9 24t24 9h2q15 0 24 -9t9 -24v-4q0 -15 -9 -23.5t-24 -8.5h-2q-15 0 -24 8.5zM387 623.5q-9 8.5 -9 23.5v4q0 15 9 24t24 9h2
q15 0 24 -9t9 -24v-4q0 -15 -9 -23.5t-24 -8.5h-2q-15 0 -24 8.5z" />
    <glyph glyph-name="Ygrave" unicode="&#x1ef2;" horiz-adv-x="516" 
d="M28 0zM238 280l-210 404h33l193 -376l202 376h32l-220 -404v-280h-30v280zM158 874l28 33l162 -149l-13 -16z" />
    <glyph glyph-name="ygrave" unicode="&#x1ef3;" horiz-adv-x="514" 
d="M75 0zM204 -232l-7 27q30 -6 65 -6q79 0 114 29q18 15 24.5 40.5t6.5 69.5v108q-84 -50 -172 -50q-78 0 -120 39q-23 20 -31.5 49t-8.5 70v346h29v-327q0 -44 7 -71t25 -44q17 -16 44 -25t62 -9q74 0 165 49v427h29v-564q0 -46 -7.5 -77t-27.5 -50q-41 -38 -129 -38
q-45 0 -68 7zM162 706l28 33l162 -149l-13 -16z" />
    <glyph glyph-name="endash" unicode="&#x2013;" horiz-adv-x="500" 
d="M0 274h500v-28h-500v28z" />
    <glyph glyph-name="emdash" unicode="&#x2014;" horiz-adv-x="1000" 
d="M0 274h1000v-28h-1000v28z" />
    <glyph glyph-name="quoteleft" unicode="&#x2018;" horiz-adv-x="207" 
d="M110 601q27 -3 27 -26v-4q0 -13 -7 -20t-20 -7h-2q-14 0 -20.5 10t-6.5 36q0 47 14 107h15v-96z" />
    <glyph glyph-name="quoteright" unicode="&#x2019;" horiz-adv-x="207" 
d="M70 544zM97 640q-27 3 -27 26v4q0 13 7 20t20 7h2q14 0 20.5 -10t6.5 -36q0 -47 -14 -107h-15v96z" />
    <glyph glyph-name="quotesinglbase" unicode="&#x201a;" horiz-adv-x="207" 
d="M70 0zM97 -14q-27 3 -27 26v4q0 13 7 20t20 7h2q14 0 20.5 -10t6.5 -36q0 -47 -14 -107h-15v96z" />
    <glyph glyph-name="quotedblleft" unicode="&#x201c;" horiz-adv-x="296" 
d="M110 601q27 -3 27 -26v-4q0 -13 -7 -20t-20 -7h-2q-14 0 -20.5 10t-6.5 36q0 47 14 107h15v-96zM199 601q27 -3 27 -26v-4q0 -13 -7 -20t-20 -7h-2q-14 0 -20.5 10t-6.5 36q0 47 14 107h15v-96z" />
    <glyph glyph-name="quotedblright" unicode="&#x201d;" horiz-adv-x="296" 
d="M70 544zM186 640q-27 3 -27 26v4q0 13 7 20t20 7h2q14 0 20.5 -10t6.5 -36q0 -47 -14 -107h-15v96zM97 640q-27 3 -27 26v4q0 13 7 20t20 7h2q14 0 20.5 -10t6.5 -36q0 -47 -14 -107h-15v96z" />
    <glyph glyph-name="quotedblbase" unicode="&#x201e;" horiz-adv-x="295" 
d="M70 0zM97 -14q-27 3 -27 26v4q0 13 7 20t20 7h2q14 0 20.5 -10t6.5 -36q0 -47 -14 -107h-15v96zM185 -14q-27 3 -27 26v4q0 13 7 20t20 7h2q14 0 20.5 -10t6.5 -36q0 -47 -14 -107h-15v96z" />
    <glyph glyph-name="dagger" unicode="&#x2020;" horiz-adv-x="466" 
d="M223 401l-197 -5v28l197 -5l-4 265h29l-5 -265l197 5v-28l-197 5l5 -638h-29z" />
    <glyph glyph-name="daggerdbl" unicode="&#x2021;" horiz-adv-x="466" 
d="M223 29l-197 -5v28l197 -5v354l-197 -5v28l197 -5l-4 265h29l-5 -265l197 5v-28l-197 5v-354l197 5v-28l-197 5l5 -266h-29z" />
    <glyph glyph-name="bullet" unicode="&#x2022;" horiz-adv-x="354" 
d="M95.5 257q-24.5 26 -24.5 82v8q0 56 24.5 82t71.5 26h20q47 0 71.5 -26t24.5 -82v-8q0 -56 -24.5 -82t-71.5 -26h-20q-47 0 -71.5 26z" />
    <glyph glyph-name="ellipsis" unicode="&#x2026;" horiz-adv-x="650" 
d="M80 0zM80 12v4q0 13 7 20t20 7h2q13 0 20 -7t7 -20v-4q0 -26 -27 -26h-2q-27 0 -27 26zM297 12v4q0 13 7 20t20 7h2q13 0 20 -7t7 -20v-4q0 -26 -27 -26h-2q-27 0 -27 26zM514 12v4q0 13 7 20t20 7h2q13 0 20 -7t7 -20v-4q0 -26 -27 -26h-2q-27 0 -27 26z" />
    <glyph glyph-name="perthousand" unicode="&#x2030;" horiz-adv-x="1171" 
d="M98.5 341q-32.5 48 -32.5 154t32.5 154t98.5 48q65 0 97.5 -48t32.5 -154t-32.5 -154t-97.5 -48q-66 0 -98.5 48zM583 697h30l-337 -711h-30zM275 357.5q24 39.5 24 137.5q0 97 -24.5 137t-77.5 40q-54 0 -78.5 -39.5t-24.5 -137.5q0 -99 25 -138t78 -39q54 0 78 39.5z
M565.5 34q-32.5 48 -32.5 154t32.5 154t98.5 48q65 0 97.5 -48t32.5 -154t-32.5 -154t-97.5 -48q-66 0 -98.5 48zM878.5 34q-32.5 48 -32.5 154t32.5 154t98.5 48q65 0 97.5 -48t32.5 -154t-32.5 -154t-97.5 -48q-66 0 -98.5 48zM742 50.5q24 39.5 24 137.5q0 97 -24.5 137
t-77.5 40q-54 0 -78.5 -39.5t-24.5 -137.5q0 -99 25 -138t78 -39q54 0 78 39.5zM1055 50.5q24 39.5 24 137.5q0 97 -24.5 137t-77.5 40q-54 0 -78.5 -39.5t-24.5 -137.5q0 -99 25 -138t78 -39q54 0 78 39.5z" />
    <glyph glyph-name="guilsinglleft" unicode="&#x2039;" horiz-adv-x="327" 
d="M114 214q-15 18 -19.5 28t-4.5 20t4.5 20t19.5 28l118 140l19 -14l-129 -174l129 -174l-19 -14z" />
    <glyph glyph-name="guilsinglright" unicode="&#x203a;" horiz-adv-x="327" 
d="M76 88l129 174l-129 174l19 14l118 -140q15 -18 19.5 -28t4.5 -20t-4.5 -20t-19.5 -28l-118 -140z" />
    <glyph glyph-name="fraction" unicode="&#x2044;" horiz-adv-x="337" 
d="M322 697h30l-337 -711h-30z" />
    <glyph glyph-name="Euro" unicode="&#x20ac;" horiz-adv-x="511" 
d="M168 52.5q-65 66.5 -77 207.5h-71v17l68 7q-1 16 -1 47v42h-67v17l69 7q10 160 83 235q63 65 177 65q61 0 130 -23v-26q-29 10 -64.5 16t-67.5 6q-92 0 -147 -52q-73 -69 -81 -220h237v-25h-239v-46q0 -29 1 -42h238v-25h-236q11 -128 67.5 -187.5t163.5 -59.5
q56 0 136 14v-24q-66 -17 -135 -17q-119 0 -184 66.5z" />
    <glyph glyph-name="uni2113" unicode="&#x2113;" horiz-adv-x="185" 
d="M78 0zM78 715h29v-715h-29v715z" />
    <glyph glyph-name="uni2116" unicode="&#x2116;" horiz-adv-x="968" 
d="M94 684h22l413 -624v624h28v-684h-23l-412 624v-624h-28v684zM710 264q-34 21 -54.5 60.5t-20.5 94.5t20.5 94.5t54.5 60.5t76 21q41 0 75.5 -21t55 -60.5t20.5 -94.5t-20.5 -94.5t-55 -60.5t-75.5 -21q-42 0 -76 21zM875.5 309q33.5 40 33.5 110t-33.5 110t-89.5 40
t-89.5 -40t-33.5 -110t33.5 -110t89.5 -40t89.5 40z" />
    <glyph glyph-name="trademark" unicode="&#x2122;" horiz-adv-x="626" 
d="M121 660h-101v24h229v-24h-101v-290h-27v290zM304 684h26l112 -230l118 230h26v-314h-25v265l-106 -207h-26l-101 207v-265h-24v314z" />
    <glyph glyph-name="uni2126" unicode="&#x2126;" horiz-adv-x="635" 
d="M68 0zM88 27h159q-79 54 -129 143.5t-50 211.5q0 95 29.5 166t86 110t134.5 39q77 0 133.5 -39t86 -110t29.5 -165q0 -122 -50.5 -212t-129.5 -144h160v-27h-188v12q0 14 3.5 19.5t14.5 14.5q78 63 118 145t40 193q0 128 -54 205.5t-163 77.5q-110 0 -164 -77.5
t-54 -206.5q0 -111 40 -191.5t119 -145.5q11 -9 14 -14.5t3 -19.5v-12h-188v27z" />
    <glyph glyph-name="estimated" unicode="&#x212e;" horiz-adv-x="854" 
d="M228.5 33.5q-91.5 47.5 -145 129t-53.5 178.5t53.5 179t145 129.5t199.5 47.5q107 0 198 -47.5t144.5 -129.5t53.5 -179v-8h-642q-7 0 -7 -6v-194q0 -10 11 -23q46 -48 109 -75t134 -27q76 0 142 31t112 85h59q-57 -64 -139 -101t-175 -37q-108 0 -199.5 47.5zM672 352
q7 0 7 6v196q0 12 -12 24q-46 46 -108 72t-130 26q-71 0 -133.5 -26.5t-109.5 -74.5q-11 -13 -11 -26v-191q0 -6 7 -6h490z" />
    <glyph glyph-name="partialdiff" unicode="&#x2202;" horiz-adv-x="511" 
d="M105.5 43.5q-47.5 57.5 -47.5 160.5q0 99 46.5 147t138.5 48q82 0 168 -34q-3 101 -20 166t-50 96q-45 42 -136 42q-54 0 -93 -6v24q16 4 46 7t55 3q45 0 85.5 -12.5t66.5 -38.5q77 -77 77 -321q0 -165 -44.5 -252t-154.5 -87q-90 0 -137.5 57.5zM373.5 91.5
q38.5 77.5 38.5 214.5v32q-84 33 -164 33q-76 0 -118 -36.5t-42 -129.5q0 -91 40.5 -141t114.5 -50q92 0 130.5 77.5z" />
    <glyph glyph-name="uni2206" unicode="&#x2206;" horiz-adv-x="590" 
d="M41 0zM41 6q0 12 6 29l225 649h42l227 -641q8 -23 8 -33v-10h-508v6zM512 27l-220 628l-215 -628h435z" />
    <glyph glyph-name="product" unicode="&#x220f;" horiz-adv-x="708" 
d="M152 657h-100v27h604v-27h-100v-882h-30v882h-344v-882h-30v882z" />
    <glyph glyph-name="summation" unicode="&#x2211;" horiz-adv-x="582" 
d="M66 -201l315 439l-305 423v23h442v-27h-403l302 -419l-313 -436h414v-27h-452v24z" />
    <glyph glyph-name="minus" unicode="&#x2212;" horiz-adv-x="485" 
d="M96 349h293v-26h-293v26z" />
    <glyph glyph-name="radical" unicode="&#x221a;" horiz-adv-x="622" 
d="M135 464h-63v26h83l168 -448l238 689h29l-252 -731h-30z" />
    <glyph glyph-name="infinity" unicode="&#x221e;" horiz-adv-x="690" 
d="M419.5 209.5q-30.5 29.5 -61.5 86.5q-31 -52 -71.5 -83t-89.5 -31q-72 0 -104.5 46t-32.5 114q0 65 32 109.5t99 44.5q52 0 84.5 -28.5t60.5 -80.5q29 48 69 77.5t88 29.5q72 0 104.5 -46t32.5 -114q0 -65 -32 -109.5t-99 -44.5q-49 0 -79.5 29.5zM276 235.5
q34 27.5 68 85.5q-34 70 -67.5 109.5t-85.5 39.5q-47 0 -75 -33.5t-28 -93.5q0 -64 28 -99.5t80 -35.5q46 0 80 27.5zM574 239.5q28 33.5 28 93.5q0 63 -28.5 99t-79.5 36q-45 0 -78.5 -26t-65.5 -79l10 -20q21 -44 38 -71.5t42 -46.5t59 -19q47 0 75 33.5z" />
    <glyph glyph-name="integral" unicode="&#x222b;" horiz-adv-x="502" 
d="M78 -234v27q30 -5 57 -5q31 0 49.5 6t30.5 18q15 15 18.5 35.5t3.5 66.5v689q0 45 6 69t23 40t39.5 23.5t60.5 7.5q31 0 59 -5v-27q-30 5 -57 5q-31 0 -49.5 -6t-30.5 -18q-15 -15 -18.5 -35.5t-3.5 -66.5v-689q0 -45 -6 -69t-23 -40t-39.5 -23.5t-60.5 -7.5q-31 0 -59 5
z" />
    <glyph glyph-name="approxequal" unicode="&#x2248;" horiz-adv-x="485" 
d="M234 405q-55 17 -80 17q-14 0 -21 -7t-11 -24l-25 4q4 31 17 44t37 13q20 0 41 -4.5t54 -14.5q31 -9 49.5 -13.5t35.5 -4.5q15 0 22 7.5t10 23.5l25 -4q-4 -31 -17 -44t-37 -13q-36 0 -100 20zM234 227q-55 17 -80 17q-14 0 -21 -7t-11 -24l-25 4q4 31 17 44t37 13
q20 0 41 -4.5t54 -14.5q31 -9 49.5 -13.5t35.5 -4.5q15 0 22 7.5t10 23.5l25 -4q-4 -31 -17 -44t-37 -13q-36 0 -100 20z" />
    <glyph glyph-name="notequal" unicode="&#x2260;" horiz-adv-x="864" 
d="M774 328h-327v-328h-30v328h-327v28h327v328h30v-328h327v-28z" />
    <glyph glyph-name="lessequal" unicode="&#x2264;" horiz-adv-x="485" 
d="M97 314v30l291 145v-30l-263 -130l263 -130v-30zM96 26h293v-26h-293v26z" />
    <glyph glyph-name="greaterequal" unicode="&#x2265;" horiz-adv-x="485" 
d="M97 199l263 130l-263 130v30l291 -145v-30l-291 -145v30zM96 26h293v-26h-293v26z" />
    <glyph glyph-name="lozenge" unicode="&#x25ca;" horiz-adv-x="537" 
d="M66 290q-13 21 -17.5 31t-4.5 21q0 10 4 19.5t18 32.5l187 290h32l186 -290q13 -21 17.5 -31t4.5 -21q0 -10 -4 -19.5t-18 -32.5l-186 -290h-32zM467 342l-198 312l-199 -312l199 -312z" />
    <glyph glyph-name="uniF8FF" unicode="&#xf8ff;" horiz-adv-x="606" 
d="M100 684h406v-66h-338v-550h75v-68h-143v684zM235 277h205v69h-205v203h271v-68h-202v-67h202v-204h-271v67z" />
    <glyph glyph-name="i.loclTRK" horiz-adv-x="185" 
d="M62 0zM78 490h29v-490h-29v490zM62 650v8q0 28 28 28h6q28 0 28 -28v-8q0 -28 -28 -28h-6q-28 0 -28 28z" />
    <glyph glyph-name="notequal.ss01" horiz-adv-x="485" 
d="M195 236h-99v26h109l48 141h-157v26h166l53 154h28l-53 -154h99v-26h-108l-48 -141h156v-26h-166l-52 -152h-28z" />
    <glyph glyph-name="plus.ss01" horiz-adv-x="864" 
d="M774 328h-327v-328h-30v328h-327v28h327v328h30v-328h327v-28z" />
    <glyph glyph-name="uni0308.case" 
d="M-307 791.5q-9 8.5 -9 23.5v4q0 15 9 24t24 9h2q15 0 24 -9t9 -24v-4q0 -15 -9 -23.5t-24 -8.5h-2q-15 0 -24 8.5zM-133 791.5q-9 8.5 -9 23.5v4q0 15 9 24t24 9h2q15 0 24 -9t9 -24v-4q0 -15 -9 -23.5t-24 -8.5h-2q-15 0 -24 8.5z" />
    <glyph glyph-name="uni0307.case" 
d="M-226 818v8q0 28 28 28h6q28 0 28 -28v-8q0 -28 -28 -28h-6q-28 0 -28 28z" />
    <glyph glyph-name="gravecomb.case" 
d="M-292 874l28 33l162 -149l-13 -16z" />
    <glyph glyph-name="acutecomb.case" 
d="M-288 758l162 149l28 -33l-177 -132z" />
    <glyph glyph-name="uni030B.case" 
d="M-375 773l140 180l37 -33l-159 -164zM-195 773l140 180l37 -33l-159 -164z" />
    <glyph glyph-name="uni0302.case" 
d="M-332 745l118 126h39l118 -126l-15 -16l-122 115l-122 -115z" />
    <glyph glyph-name="uni030C.case" 
d="M-333 855l16 16l122 -115l122 115l15 -16l-118 -126h-39z" />
    <glyph glyph-name="uni0306.case" 
d="M-275.5 779.5q-28.5 31.5 -31.5 83.5h24q4 -35 25.5 -59.5t63.5 -24.5q77 0 89 84h23q-3 -52 -31 -83.5t-81 -31.5t-81.5 31.5z" />
    <glyph glyph-name="uni030A.case" 
d="M-117.5 930q26.5 -28 26.5 -73t-27 -73t-76 -28h-4q-49 0 -75 28t-26 73t26.5 73t75.5 28h4q49 0 75.5 -28zM-121 858q0 36 -18 54.5t-54 18.5h-5q-34 0 -52.5 -19t-18.5 -54v-3q0 -35 18.5 -54t51.5 -19h5q36 0 54.5 19t18.5 54v3zM-299 858v-1v-1v2zM-91 856v1v1v-2z
" />
    <glyph glyph-name="tildecomb.case" 
d="M-163 776.5q-13 5.5 -35 17.5q-20 10 -31.5 15t-24.5 5q-27 0 -44 -40l-23 6q14 68 66 68q17 0 32 -6t34 -18q19 -10 30 -15t24 -5q26 0 44 40l22 -6q-14 -67 -65 -67q-16 0 -29 5.5z" />
    <glyph glyph-name="uni0304.case" 
d="M-307 842h223v-27h-223v27z" />
    <glyph glyph-name="acute.case" horiz-adv-x="390" 
d="M102 742zM102 758l162 149l28 -33l-177 -132z" />
    <glyph glyph-name="breve.case" horiz-adv-x="390" 
d="M83 748zM114.5 779.5q-28.5 31.5 -31.5 83.5h24q4 -35 25.5 -59.5t63.5 -24.5q77 0 89 84h23q-3 -52 -31 -83.5t-81 -31.5t-81.5 31.5z" />
    <glyph glyph-name="caron.case" horiz-adv-x="390" 
d="M57 729zM57 855l16 16l122 -115l122 115l15 -16l-118 -126h-39z" />
    <glyph glyph-name="circumflex.case" horiz-adv-x="390" 
d="M58 729zM58 745l118 126h39l118 -126l-15 -16l-122 115l-122 -115z" />
    <glyph glyph-name="dieresis.case" horiz-adv-x="390" 
d="M74 783zM83 791.5q-9 8.5 -9 23.5v4q0 15 9 24t24 9h2q15 0 24 -9t9 -24v-4q0 -15 -9 -23.5t-24 -8.5h-2q-15 0 -24 8.5zM257 791.5q-9 8.5 -9 23.5v4q0 15 9 24t24 9h2q15 0 24 -9t9 -24v-4q0 -15 -9 -23.5t-24 -8.5h-2q-15 0 -24 8.5z" />
    <glyph glyph-name="dotaccent.case" horiz-adv-x="390" 
d="M164 790zM164 818v8q0 28 28 28h6q28 0 28 -28v-8q0 -28 -28 -28h-6q-28 0 -28 28z" />
    <glyph glyph-name="grave.case" horiz-adv-x="390" 
d="M98 742zM98 874l28 33l162 -149l-13 -16z" />
    <glyph glyph-name="hungarumlaut.case" horiz-adv-x="390" 
d="M15 756zM15 773l140 180l37 -33l-159 -164zM195 773l140 180l37 -33l-159 -164z" />
    <glyph glyph-name="macron.case" horiz-adv-x="390" 
d="M83 815zM83 842h223v-27h-223v27z" />
    <glyph glyph-name="ring.case" horiz-adv-x="390" 
d="M91 756zM272.5 930q26.5 -28 26.5 -73t-27 -73t-76 -28h-4q-49 0 -75 28t-26 73t26.5 73t75.5 28h4q49 0 75.5 -28zM269 858q0 36 -18 54.5t-54 18.5h-5q-34 0 -52.5 -19t-18.5 -54v-3q0 -35 18.5 -54t51.5 -19h5q36 0 54.5 19t18.5 54v3zM91 858v-1v-1v2zM299 856v1v1
v-2z" />
    <glyph glyph-name="tilde.case" horiz-adv-x="390" 
d="M69 771zM227 776.5q-13 5.5 -35 17.5q-20 10 -31.5 15t-24.5 5q-27 0 -44 -40l-23 6q14 68 66 68q17 0 32 -6t34 -18q19 -10 30 -15t24 -5q26 0 44 40l22 -6q-14 -67 -65 -67q-16 0 -29 5.5z" />
    <glyph glyph-name=".ttfautohint" horiz-adv-x="390" 
d="M0 0z" />
    </font>
</defs>
</svg>
